<svg xmlns="http://www.w3.org/2000/svg" viewBox="0 0 50.46 50.46"><defs><style>.cls-1{fill:#fff;}</style></defs><title>contact-twitter-hover</title><g id="Layer_2" data-name="Layer 2"><g id="Layer_1-2" data-name="Layer 1"><path class="cls-1" d="M25.23,0A25.23,25.23,0,1,0,50.46,25.23,25.24,25.24,0,0,0,25.23,0Zm10.4,20.85A13.71,13.71,0,0,1,14.53,33a9.74,9.74,0,0,0,7.15-2,4.81,4.81,0,0,1-4.51-3.34,4.83,4.83,0,0,0,2.18-.09,4.83,4.83,0,0,1-3.87-4.79,4.74,4.74,0,0,0,2.18.6A4.84,4.84,0,0,1,16.17,17a13.68,13.68,0,0,0,9.94,5,4.83,4.83,0,0,1,8.22-4.4,9.3,9.3,0,0,0,3.06-1.17,4.82,4.82,0,0,1-2.12,2.67A9.55,9.55,0,0,0,38,18.35,9.71,9.71,0,0,1,35.63,20.85Z"/></g></g></svg>