<svg xmlns="http://www.w3.org/2000/svg" viewBox="0 0 224.98 128.8"><defs><style>.cls-1{fill:#32383b;opacity:0.3;}.cls-2{fill:#45b8b9;}.cls-2,.cls-4,.cls-5,.cls-6{stroke:#414141;stroke-miterlimit:10;}.cls-3{fill:#fff;}.cls-4{fill:#44b1bb;}.cls-5{fill:#3fa9bd;}.cls-6{fill:#49bdb7;}</style></defs><title>icons</title><g id="Layer_2" data-name="Layer 2"><g id="Layer_1-2" data-name="Layer 1"><circle class="cls-1" cx="154.08" cy="40.45" r="36.95"/><circle class="cls-2" cx="154.08" cy="37.45" r="36.95"/><path class="cls-3" d="M163.5,56.34H143.44a1.12,1.12,0,1,1,0-2.23H163.5a1.12,1.12,0,0,1,0,2.23Z"/><path class="cls-3" d="M158,40.9h-9a.31.31,0,0,1-.33-.33v-.39a.31.31,0,0,1,.33-.33h9a.31.31,0,0,1,.33.33v.39C158.41,40.74,158.24,40.9,158,40.9Z"/><path class="cls-3" d="M149,25.41a.83.83,0,0,1-.84-.83V15.66a.83.83,0,0,1,.84-.83h8.91a.84.84,0,0,1,.84.83v8.92a.84.84,0,0,1-.84.83Zm.83-1.67h7.24V16.5h-7.24Z"/><rect class="cls-3" x="134.8" y="19.29" width="12.82" height="1.67"/><rect class="cls-3" x="159.31" y="19.29" width="12.82" height="1.67"/><path class="cls-3" d="M173.57,23.19a3.07,3.07,0,1,1,3.06-3.07A3.08,3.08,0,0,1,173.57,23.19Zm0-4.46A1.39,1.39,0,1,0,175,20.12,1.39,1.39,0,0,0,173.57,18.73Z"/><path class="cls-3" d="M133.45,23.19a3.07,3.07,0,1,1,3.07-3.07A3.07,3.07,0,0,1,133.45,23.19Zm0-4.46a1.39,1.39,0,1,0,1.39,1.39A1.39,1.39,0,0,0,133.45,18.73Z"/><path class="cls-3" d="M175.38,40.32a.83.83,0,0,1-.83-.84A18.81,18.81,0,0,0,159,20.92a.82.82,0,0,1-.54-.35.85.85,0,0,1-.14-.62.84.84,0,0,1,.82-.69h.15a20.47,20.47,0,0,1,17,20.21A.85.85,0,0,1,175.38,40.32Z"/><path class="cls-3" d="M131.54,40.32a.83.83,0,0,1-.83-.84,20.47,20.47,0,0,1,16.95-20.21h.16a.83.83,0,0,1,.13,1.65,18.82,18.82,0,0,0-15.57,18.57A.84.84,0,0,1,131.54,40.32Z"/><path class="cls-3" d="M160.71,55.09l-.21,0a.81.81,0,0,1-.51-.39.76.76,0,0,1-.09-.62l2.69-10.66-9.12-13.94-9.13,13.94L147,54a.84.84,0,0,1-.6,1l-.21,0a.84.84,0,0,1-.81-.63l-2.78-11a.81.81,0,0,1,.11-.66l10-15.32a.87.87,0,0,1,1.39,0l10,15.32a.81.81,0,0,1,.11.66l-2.78,11A.84.84,0,0,1,160.71,55.09Z"/><path class="cls-3" d="M153.46,48.06a.82.82,0,0,1-.83-.8V30.12a.82.82,0,0,1,.83-.81.83.83,0,0,1,.84.81V47.26A.82.82,0,0,1,153.46,48.06Z"/><path class="cls-3" d="M153.46,53.14a3.07,3.07,0,1,1,3.07-3.07A3.07,3.07,0,0,1,153.46,53.14Zm0-4.46a1.39,1.39,0,1,0,1.4,1.39A1.39,1.39,0,0,0,153.46,48.68Z"/><circle class="cls-1" cx="72.35" cy="40.45" r="36.95"/><circle class="cls-4" cx="72.35" cy="37.45" r="36.95"/><path class="cls-3" d="M77.59,60.66h-9.7a2.24,2.24,0,0,1-2.23-2.24v-4c0-.2-.42-.51-1.08-.8l-.11-.05a18.62,18.62,0,0,1-3.66-2.2.88.88,0,0,0-.91-.16l-3.35,1.93a2.24,2.24,0,0,1-3.1-.79l-4.85-8.4a2.23,2.23,0,0,1,.82-3.05l.53.71-.45-.76.23-.13.51.72-.44-.76,2.65-1.53c.81-.47.81-.47.74-1A17.18,17.18,0,0,1,53,35.64v-.11a17.78,17.78,0,0,1,.15-2.47V33c.07-.48.07-.48-.77-1L49.8,30.52l.39-.8-.44.77-.25-.14.39-.8-.47.75a2.25,2.25,0,0,1-.82-3.05l4.85-8.4a2.25,2.25,0,0,1,1.94-1.12,2.21,2.21,0,0,1,1.12.3l3.4,2a.86.86,0,0,0,.9-.16,18.55,18.55,0,0,1,3.69-2.22l.08,0c.67-.3,1.08-.6,1.08-.8v-4a2.23,2.23,0,0,1,2.23-2.23h9.7a2.23,2.23,0,0,1,2.24,2.23v4c0,.2.41.5,1.08.8l.1,0a18.64,18.64,0,0,1,3.67,2.21.86.86,0,0,0,.9.16L89,18a2.24,2.24,0,0,1,3.06.81l4.85,8.4a2.24,2.24,0,0,1-.81,3.05l-2.24,1.29-.5-.73.44.76-.68.4c-.86.5-.86.5-.79,1v.06a17.88,17.88,0,0,1,.15,2.45v.11a17.63,17.63,0,0,1-.15,2.46h0c-.08.54-.08.54.75,1l.71.4-.38.8.44-.76,1.86,1.07-.39.79.44-.76.34.2a2.22,2.22,0,0,1,.8,3L92,52.32a2.23,2.23,0,0,1-1.93,1.12,2.32,2.32,0,0,1-1.12-.3l-3.39-2a.88.88,0,0,0-.91.15A17.83,17.83,0,0,1,81,53.54l-.13.06c-.65.28-1.06.59-1.06.79v4A2.24,2.24,0,0,1,77.59,60.66ZM65.29,52c.92.4,2.13,1.09,2.13,2.41v4a.47.47,0,0,0,.47.47h9.7a.48.48,0,0,0,.48-.47v-4c0-1.32,1.21-2,2.13-2.41l.07,0a15.68,15.68,0,0,0,3.32-2,2.66,2.66,0,0,1,2.87-.29l1.4.81-.37.8.43-.77.77.45-.36.81.44-.77,1.08.63a.51.51,0,0,0,.25.06.49.49,0,0,0,.41-.23L95.36,43a.45.45,0,0,0,0-.36.49.49,0,0,0-.22-.29l-3-1.71c-1.33-.77-1.85-1.32-1.66-2.73v-.07a16.15,16.15,0,0,0,.14-2.24v-.11a15.64,15.64,0,0,0-.14-2.22v-.08c-.2-1.41.32-2,1.63-2.72l.88-.51.5.73L93.11,30l1.7-1,.49.73L94.86,29l.29-.17a.48.48,0,0,0,.21-.66l-4.85-8.4a.49.49,0,0,0-.65-.18l-1.94,1.12-.46-.74.41.77-1.45.84h0a2.62,2.62,0,0,1-2.83-.32,16.55,16.55,0,0,0-3.32-2l0,0c-1-.42-2.16-1.11-2.16-2.42v-4a.48.48,0,0,0-.48-.47h-9.7a.47.47,0,0,0-.47.47v4c0,1.32-1.21,2-2.13,2.41l-.42-.78.37.8a17,17,0,0,0-3.35,2,2.66,2.66,0,0,1-2.87.3l-1.4-.81.38-.8-.44.76-1.9-1.1a.54.54,0,0,0-.27-.08.47.47,0,0,0-.41.24l-4.85,8.4a.5.5,0,0,0-.05.36.52.52,0,0,0,.22.28l3,1.72c1.34.78,1.86,1.33,1.65,2.77v.06a14.07,14.07,0,0,0-.14,2.21v.07a14.58,14.58,0,0,0,.14,2.26v.06c.2,1.43-.32,2-1.63,2.74l-3,1.72a.53.53,0,0,0-.26.3.5.5,0,0,0,.05.36L55,51.44a.48.48,0,0,0,.65.17l1.93-1.12.47.75-.4-.78,1.43-.83a2.32,2.32,0,0,1,1.14-.29,2.84,2.84,0,0,1,1.7.6,15.66,15.66,0,0,0,3.3,2l0,0-.07.15-.25.67Z"/><path class="cls-3" d="M72.74,51.18A15.54,15.54,0,1,1,88.29,35.64,15.56,15.56,0,0,1,72.74,51.18Zm0-29.32A13.78,13.78,0,1,0,86.52,35.64,13.8,13.8,0,0,0,72.74,21.86Z"/><path class="cls-3" d="M78.85,42l-1.37-1.36,4.79-4.79-4.79-4.78,1.37-1.37L85,35.89Zm-8.76-.35,4.2-12.57h1.93L72,41.69Zm-2.9-.13L61,35.41l6.15-6.15,1.37,1.36-4.79,4.79,4.79,4.78Z"/><circle class="cls-1" cx="28.3" cy="100.99" r="27.8"/><circle class="cls-5" cx="28.3" cy="98.73" r="27.8"/><path class="cls-3" d="M44.44,96.5a15.42,15.42,0,0,0-30.5,0,4.35,4.35,0,0,0-3.74,4.32,4.29,4.29,0,0,0,4.33,4.33,1.87,1.87,0,0,0,.66-.08,15.33,15.33,0,0,0,28,0c.22,0,.44.08.66.08a4.29,4.29,0,0,0,4.33-4.33A4.35,4.35,0,0,0,44.44,96.5ZM43,96.64a15.1,15.1,0,0,1-5.42,1,15.29,15.29,0,0,1-12.61-6.53V85.5a13.6,13.6,0,0,1,4.25-.66A14,14,0,0,1,43,96.64ZM23.4,86.09v4.83a16.82,16.82,0,0,1-7.92,5.28A14,14,0,0,1,23.4,86.09Zm20.45,17.59a4,4,0,0,1-.88-.15l-.66-.22-.22.66a13.9,13.9,0,0,1-25.8,0l-.22-.66-.66.22a3.38,3.38,0,0,1-.88.15A2.86,2.86,0,0,1,14.46,98H15a18.32,18.32,0,0,0,9-5.5,17,17,0,0,0,13.41,6.68A16.43,16.43,0,0,0,43.41,98h.37a2.86,2.86,0,0,1,2.86,2.85A2.74,2.74,0,0,1,43.85,103.68Z"/><path class="cls-3" d="M23.94,106.56a9.79,9.79,0,0,0,11.48-.75"/><circle class="cls-1" cx="196.68" cy="100.99" r="27.8"/><circle class="cls-6" cx="196.68" cy="98.73" r="27.8"/><path class="cls-3" d="M191.28,113.71a1.45,1.45,0,0,1-1.44-1.47v-1.36a1.43,1.43,0,0,1,1.44-1.44h.87l.35-1.63h-8.78a4.37,4.37,0,0,1-4.32-4.22V88.06a4.32,4.32,0,0,1,4.32-4.23H209a4.31,4.31,0,0,1,4.32,4.22V98l.17.15a6.45,6.45,0,0,1,.47,8.54l3.91,3.94a.66.66,0,0,1,.17.75.76.76,0,0,1-.69.48h0a.68.68,0,0,1-.5-.22l-3.91-3.93a6.47,6.47,0,0,1-7.88.12h-4.87l.37,1.63h.85a1.44,1.44,0,0,1,1.47,1.44v1.36a1.47,1.47,0,0,1-1.47,1.47Zm0-2.86a0,0,0,0,0,0,0v1.36l10.15,0s.06,0,.06,0v-1.36a.09.09,0,0,0-.06,0Zm7.82-1.41-.38-1.63H194l-.38,1.63Zm9.82-11.76a5,5,0,0,0-5,5,4.88,4.88,0,0,0,1.48,3.5,4.93,4.93,0,0,0,3.53,1.49,5,5,0,0,0,3.55-8.56A5.14,5.14,0,0,0,208.92,97.68Zm-28.06,6.19a2.85,2.85,0,0,0,2.86,2.49h19.93a6.14,6.14,0,0,1-1-2.49Zm21.62-1.44a6.45,6.45,0,0,1,6.43-6.18,6.26,6.26,0,0,1,3,.73V89.21h-31v13.22Zm9.36-14.67A2.84,2.84,0,0,0,209,85.27H183.72a2.86,2.86,0,0,0-2.86,2.49Zm-2.93,19a3.83,3.83,0,0,1-2.73-1.13.58.58,0,0,1-.16-.41.62.62,0,0,1,.16-.41.59.59,0,0,1,.83,0,2.7,2.7,0,0,0,1.91.8,2.59,2.59,0,0,0,1.88-.8h0l0,0a.67.67,0,0,1,.39-.14.59.59,0,0,1,.54.37.55.55,0,0,1-.15.63A3.82,3.82,0,0,1,208.91,106.76Z"/><path class="cls-3" d="M186.94,96.88a2.62,2.62,0,1,1,2.62-2.61A2.62,2.62,0,0,1,186.94,96.88Zm0-4a1.36,1.36,0,1,0,1.36,1.36A1.36,1.36,0,0,0,186.94,92.91Z"/><path class="cls-3" d="M194.75,101.14a2.62,2.62,0,1,1,2.62-2.62A2.61,2.61,0,0,1,194.75,101.14Zm0-4a1.36,1.36,0,1,0,1.36,1.36A1.36,1.36,0,0,0,194.75,97.16Z"/><path class="cls-3" d="M201.08,95.84a2.62,2.62,0,1,1,2.62-2.62A2.62,2.62,0,0,1,201.08,95.84Zm0-4a1.36,1.36,0,1,0,1.36,1.36A1.36,1.36,0,0,0,201.08,91.86Z"/><rect class="cls-3" x="189.71" y="94.34" width="1.26" height="4.66" transform="translate(31.66 239.48) rotate(-68.91)"/><rect class="cls-3" x="196.13" y="95.42" width="4.12" height="1.26" transform="translate(-9.33 169.8) rotate(-45.42)"/></g></g></svg>