<?xml version="1.0" encoding="utf-8"?>
<!-- Generator: Adobe Illustrator 22.1.0, SVG Export Plug-In . SVG Version: 6.00 Build 0)  -->
<svg version="1.1" id="Layer_1" xmlns="http://www.w3.org/2000/svg" xmlns:xlink="http://www.w3.org/1999/xlink" x="0px" y="0px"
	 viewBox="0 0 225 128.8" style="enable-background:new 0 0 225 128.8;" xml:space="preserve">
<style type="text/css">
	.icons0{opacity:0.3;fill:#32383B;enable-background:new    ;}
	.icons1{fill:#45B8B9;}
	.icons2{fill:#FFFFFF;}
	.icons3{fill:#44B1BB;}
	.icons4{fill:#3FA9BD;}
	.icons5{fill:#49BDB7;}
	.icons6{fill:none;stroke:#414141;stroke-miterlimit:10;}
</style>
<title>icons</title>
<g>
	<g id="Layer_2_1_">
		<g id="Layer_1-2">
			<circle class="icons0" cx="154.1" cy="40.5" r="36.9"/>
			<circle class="icons1" cx="154.1" cy="37.5" r="36.9"/>
			<path class="icons2" d="M163.5,56.3h-20.1c-0.6,0.1-1.2-0.4-1.2-1c-0.1-0.6,0.4-1.2,1-1.2c0.1,0,0.1,0,0.2,0h20.1
				c0.6,0.1,1.1,0.6,1,1.2C164.5,55.9,164,56.3,163.5,56.3z"/>
			<path class="icons2" d="M158,40.9h-9c-0.2,0-0.3-0.1-0.3-0.3l0,0v-0.4c0-0.2,0.1-0.3,0.3-0.3l0,0h9c0.2,0,0.3,0.1,0.3,0.3l0,0v0.4
				C158.4,40.7,158.2,40.9,158,40.9z"/>
			<path class="icons2" d="M149,25.4c-0.5,0-0.8-0.4-0.8-0.8l0,0v-8.9c0-0.5,0.4-0.8,0.8-0.8l0,0h8.9c0.5,0,0.8,0.4,0.8,0.8v8.9
				c0,0.5-0.4,0.8-0.8,0.8H149z M149.8,23.7h7.2v-7.2h-7.2V23.7z"/>
			<rect x="134.8" y="19.3" class="icons2" width="12.8" height="1.7"/>
			<rect x="159.3" y="19.3" class="icons2" width="12.8" height="1.7"/>
			<path class="icons2" d="M173.6,23.2c-1.7,0-3.1-1.4-3.1-3.1s1.4-3.1,3.1-3.1s3.1,1.4,3.1,3.1l0,0C176.6,21.8,175.3,23.2,173.6,23.2z
				 M173.6,18.7c-0.8,0-1.4,0.7-1.3,1.4c0,0.8,0.7,1.4,1.4,1.3c0.8,0,1.3-0.6,1.4-1.4C175,19.4,174.4,18.7,173.6,18.7L173.6,18.7z"
				/>
			<path class="icons2" d="M133.4,23.2c-1.7,0-3.1-1.4-3.1-3.1s1.4-3.1,3.1-3.1s3.1,1.4,3.1,3.1C136.5,21.8,135.1,23.2,133.4,23.2
				L133.4,23.2z M133.4,18.7c-0.8,0-1.4,0.6-1.4,1.4s0.6,1.4,1.4,1.4c0.8,0,1.4-0.6,1.4-1.4l0,0C134.8,19.4,134.2,18.7,133.4,18.7z"
				/>
			<path class="icons2" d="M175.4,40.3c-0.5,0-0.8-0.4-0.8-0.8l0,0c0-9.1-6.5-17-15.6-18.6c-0.2,0-0.4-0.2-0.5-0.4
				c-0.1-0.2-0.2-0.4-0.1-0.6c0.1-0.4,0.4-0.7,0.8-0.7h0.1c9.8,1.7,17,10.2,17,20.2C176.3,39.9,175.9,40.3,175.4,40.3L175.4,40.3z"
				/>
			<path class="icons2" d="M131.5,40.3c-0.5,0-0.8-0.4-0.8-0.8l0,0c0-10,7.1-18.5,16.9-20.2h0.2c0.5,0,0.8,0.4,0.8,0.8
				s-0.3,0.8-0.7,0.8c-9,1.6-15.6,9.4-15.6,18.6C132.4,40,132,40.3,131.5,40.3z"/>
			<path class="icons2" d="M160.7,55.1h-0.2c-0.2-0.1-0.4-0.2-0.5-0.4s-0.2-0.4-0.1-0.6l2.7-10.7l-9.1-13.9l-9.1,13.9L147,54
				c0.1,0.4-0.2,0.9-0.6,1h-0.2c-0.4,0-0.7-0.3-0.8-0.6l-2.8-11c-0.1-0.2,0-0.5,0.1-0.7l10-15.3c0.3-0.4,0.8-0.5,1.2-0.2
				c0.1,0,0.1,0.1,0.2,0.2l10,15.3c0.1,0.2,0.2,0.4,0.1,0.7l-2.8,11C161.4,54.7,161.1,55,160.7,55.1z"/>
			<path class="icons2" d="M153.5,48.1c-0.4,0-0.8-0.4-0.8-0.8V30.1c0-0.5,0.4-0.8,0.8-0.8l0,0c0.5,0,0.8,0.4,0.8,0.8v17.1
				C154.3,47.7,153.9,48.1,153.5,48.1L153.5,48.1z"/>
			<path class="icons2" d="M153.5,53.1c-1.7,0-3.1-1.4-3.1-3.1s1.4-3.1,3.1-3.1s3.1,1.4,3.1,3.1C156.5,51.8,155.2,53.1,153.5,53.1
				L153.5,53.1z M153.5,48.7c-0.8,0-1.4,0.6-1.4,1.4c0,0.8,0.6,1.4,1.4,1.4c0.8,0,1.4-0.6,1.4-1.4S154.2,48.7,153.5,48.7L153.5,48.7
				z"/>
			<circle class="icons0" cx="72.3" cy="40.5" r="37"/>
			<circle class="icons3" cx="72.3" cy="37.5" r="37"/>
			<path class="icons2" d="M77.6,60.7h-9.7c-1.2,0-2.2-1-2.2-2.2v-4c0-0.2-0.4-0.5-1.1-0.8h-0.1c-1.3-0.6-2.5-1.3-3.7-2.2
				c-0.2-0.2-0.6-0.3-0.9-0.2l-3.3,1.9c-1.1,0.6-2.4,0.3-3.1-0.8l0,0L48.7,44c-0.6-1.1-0.3-2.4,0.8-3l0,0l0.5,0.7l-0.5-0.8l0.2-0.1
				l0.5,0.7l-0.4-0.8l2.7-1.5c0.8-0.5,0.8-0.5,0.7-1c-0.1-0.8-0.2-1.7-0.2-2.5v-0.1c0-0.8,0-1.7,0.2-2.5V33c0.1-0.5,0.1-0.5-0.8-1
				l-2.6-1.5l0.4-0.8l-0.4,0.8l-0.2-0.1l0.4-0.8l-0.5,0.8c-1.1-0.6-1.4-2-0.8-3l4.8-8.4c0.4-0.7,1.1-1.1,1.9-1.1
				c0.4,0,0.8,0.1,1.1,0.3l3.4,2c0.3,0.1,0.7,0.1,0.9-0.2c1.1-0.9,2.4-1.6,3.7-2.2h0.1c0.7-0.3,1.1-0.6,1.1-0.8v-4
				c0-1.2,1-2.2,2.2-2.2l0,0h9.7c1.2,0,2.2,1,2.2,2.2l0,0v4c0,0.2,0.4,0.5,1.1,0.8H81c1.3,0.6,2.5,1.3,3.7,2.2
				c0.2,0.2,0.6,0.3,0.9,0.2l3.4-2c1.1-0.6,2.4-0.3,3.1,0.8l4.8,8.4c0.6,1.1,0.3,2.4-0.8,3l-2.2,1.3L93.4,31l0.4,0.8L93.1,32
				c-0.9,0.5-0.9,0.5-0.8,1l0,0c0.1,0.8,0.2,1.6,0.2,2.5v0.1c0,0.8,0,1.6-0.2,2.5l0,0c-0.1,0.5-0.1,0.5,0.8,1l0.7,0.4l-0.4,0.8
				l0.4-0.8l1.9,1.1l-0.4,0.8l0.4-0.8l0.3,0.2c1,0.6,1.4,1.9,0.8,3L92,52.3c-0.4,0.7-1.1,1.1-1.9,1.1c-0.4,0-0.8-0.1-1.1-0.3l-3.4-2
				c-0.3-0.1-0.7-0.1-0.9,0.2c-1.1,0.9-2.3,1.6-3.6,2.2L81,53.6c-0.7,0.3-1.1,0.6-1.1,0.8v4C79.8,59.6,78.8,60.6,77.6,60.7
				L77.6,60.7z M65.3,52c0.9,0.4,2.1,1.1,2.1,2.4v4c0,0.3,0.2,0.5,0.5,0.5l0,0h9.7c0.3,0,0.5-0.2,0.5-0.5v-4c0-1.3,1.2-2,2.1-2.4
				h0.1c1.2-0.5,2.3-1.2,3.3-2c0.8-0.7,1.9-0.8,2.9-0.3l1.4,0.8l-0.4,0.8l0.4-0.8l0.8,0.5l-0.4,0.8l0.4-0.8l1.1,0.6
				c0.1,0,0.2,0.1,0.2,0.1c0.2,0,0.3-0.1,0.4-0.2l4.8-8.5c0.1-0.1,0.1-0.2,0-0.4c0-0.1-0.1-0.2-0.2-0.3l-3-1.7
				c-1.3-0.8-1.8-1.3-1.7-2.7v-0.1c0.1-0.7,0.1-1.5,0.1-2.2v-0.1c0-0.7,0-1.5-0.1-2.2v-0.1c-0.2-1.4,0.3-2,1.6-2.7L93,30l0.5,0.7
				L93.1,30l1.7-1l0.5,0.7L94.9,29l0.3-0.2c0.2-0.1,0.3-0.4,0.2-0.6l0,0l-4.8-8.4c-0.1-0.2-0.4-0.3-0.7-0.2L88,20.7L87.5,20l0.4,0.8
				l-1.4,0.8l0,0c-0.9,0.5-2,0.3-2.8-0.3c-1-0.8-2.1-1.5-3.3-2l0,0c-1-0.4-2.2-1.1-2.2-2.4v-4c0-0.3-0.2-0.5-0.5-0.5H68
				c-0.3,0-0.5,0.2-0.5,0.5l0,0v4c0,1.3-1.2,2-2.1,2.4L65,18.5l0.4,0.8c-1.2,0.5-2.3,1.2-3.3,2c-0.8,0.7-1.9,0.8-2.9,0.3l-1.4-0.8
				L58,20l-0.4,0.8l-1.9-1.1c-0.1-0.1-0.2-0.1-0.3-0.1c-0.2,0-0.3,0.1-0.4,0.2l-4.8,8.4c-0.1,0.1-0.1,0.2,0,0.4
				c0,0.1,0.1,0.2,0.2,0.3l3,1.7c1.3,0.8,1.9,1.3,1.7,2.8v0.1C55,34.2,54.9,35,55,35.7v0.1c0,0.8,0,1.5,0.1,2.3V38
				c0.2,1.4-0.3,2-1.6,2.7l-3,1.7c-0.1,0.1-0.2,0.2-0.3,0.3c0,0.1,0,0.3,0,0.4l4.8,8.3c0.1,0.2,0.4,0.3,0.7,0.2l1.9-1.1l0.5,0.8
				l-0.4-0.8l1.4-0.8c0.3-0.2,0.7-0.3,1.1-0.3c0.6,0,1.2,0.2,1.7,0.6C62.9,50.7,64,51.4,65.3,52L65.3,52L65.3,52L65,52.8L65.3,52z"
				/>
			<path class="icons2" d="M72.7,51.2c-8.6,0-15.5-7-15.5-15.5c0-8.6,7-15.5,15.5-15.5c8.6,0,15.5,7,15.5,15.5
				C88.3,44.2,81.3,51.2,72.7,51.2z M72.7,21.9C65.1,21.9,59,28,59,35.6s6.2,13.8,13.8,13.8s13.8-6.2,13.8-13.8l0,0
				C86.5,28,80.3,21.9,72.7,21.9z"/>
			<path class="icons2" d="M78.8,42l-1.4-1.4l4.8-4.8L77.4,31l1.4-1.4l6.2,6.2L78.8,42z M70.1,41.7l4.2-12.6h1.9L72,41.7H70.1z
				 M67.2,41.5L61,35.4l6.2-6.2l1.4,1.4l-4.8,4.8l4.8,4.8L67.2,41.5z"/>
			<circle class="icons0" cx="28.3" cy="101" r="27.8"/>
			<circle class="icons4" cx="28.3" cy="98.7" r="27.8"/>
			<path class="icons2" d="M44.4,96.5c-1.3-8.4-9.1-14.2-17.5-13c-6.7,1-12,6.3-13,13c-2.2,0.3-3.7,2.1-3.7,4.3c0,2.4,1.9,4.3,4.2,4.3
				h0.1c0.2,0,0.4,0,0.7-0.1c3.4,7.7,12.5,11.2,20.2,7.8c3.5-1.5,6.2-4.3,7.8-7.8c0.2,0,0.4,0.1,0.7,0.1c2.4,0,4.3-1.9,4.3-4.2v-0.1
				C48.2,98.6,46.6,96.8,44.4,96.5z M43,96.6c-1.7,0.7-3.6,1-5.4,1c-5,0-9.7-2.4-12.6-6.5v-5.6c1.4-0.4,2.8-0.7,4.2-0.7
				C36.1,84.9,41.9,89.9,43,96.6z M23.4,86.1v4.8c-2.1,2.5-4.8,4.3-7.9,5.3C16.3,91.7,19.3,88,23.4,86.1z M43.8,103.7
				c-0.3,0-0.6-0.1-0.9-0.2l-0.7-0.2L42,104c-2.9,7.1-11,10.6-18.1,7.7c-3.5-1.4-6.3-4.2-7.7-7.7l-0.2-0.7l-0.7,0.2
				c-0.3,0.1-0.6,0.1-0.9,0.2c-1.6-0.2-2.7-1.6-2.5-3.1c0.1-1.3,1.2-2.4,2.5-2.5H15c3.5-0.9,6.6-2.8,9-5.5c3.2,4.2,8.1,6.6,13.4,6.7
				c2.1,0,4.1-0.4,6-1.2h0.4c1.6,0,2.9,1.3,2.9,2.8s-1.1,2.8-2.6,2.8C43.9,103.7,43.9,103.7,43.8,103.7z"/>
			<path class="icons2" d="M23.9,106.6c3.6,2.3,8.2,2,11.5-0.8"/>
			<circle class="icons0" cx="196.7" cy="101" r="27.8"/>
			<circle class="icons5" cx="196.7" cy="98.7" r="27.8"/>
			<path class="icons2" d="M191.3,113.7c-0.8,0-1.4-0.7-1.4-1.5l0,0v-1.4c0-0.8,0.6-1.4,1.4-1.4l0,0h0.9l0.4-1.6h-8.8
				c-2.3,0-4.2-1.9-4.3-4.2V88.1c0-2.4,2-4.2,4.3-4.2H209c2.3,0,4.3,1.9,4.3,4.2v10l0.2,0.2c2.3,2.3,2.5,6,0.5,8.5l3.9,3.9
				c0.2,0.2,0.3,0.5,0.2,0.8s-0.4,0.5-0.7,0.5l0,0c-0.2,0-0.4-0.1-0.5-0.2l-3.9-3.9c-2.3,1.8-5.5,1.9-7.9,0.1h-4.9l0.4,1.6h0.9
				c0.8,0,1.5,0.6,1.5,1.4l0,0v1.4c0,0.8-0.7,1.5-1.5,1.5l0,0L191.3,113.7z M191.3,110.8L191.3,110.8v1.4h10.1h0.1v-1.4
				c0,0,0,0-0.1,0H191.3z M199.1,109.4l-0.4-1.6H194l-0.4,1.6H199.1z M208.9,97.7c-2.8,0-5,2.2-5,5c0,1.3,0.5,2.6,1.5,3.5
				c0.9,1,2.2,1.5,3.5,1.5c2.8,0,5-2.2,5-5c0-1.4-0.5-2.7-1.5-3.6C211.5,98.2,210.2,97.7,208.9,97.7L208.9,97.7z M180.9,103.9
				c0.2,1.4,1.4,2.5,2.9,2.5h19.9c-0.5-0.7-0.9-1.6-1-2.5H180.9z M202.5,102.4c0.1-3.4,3-6.2,6.4-6.2c1,0,2.1,0.2,3,0.7v-7.8h-31
				v13.2L202.5,102.4z M211.8,87.8c-0.2-1.4-1.4-2.5-2.8-2.5h-25.3c-1.4,0-2.7,1.1-2.9,2.5H211.8z M208.9,106.8c-1,0-2-0.4-2.7-1.1
				c-0.1-0.1-0.2-0.3-0.2-0.4c0-0.2,0.1-0.3,0.2-0.4c0.2-0.2,0.6-0.2,0.8,0c0.5,0.5,1.2,0.8,1.9,0.8s1.4-0.3,1.9-0.8l0,0l0,0
				c0.1-0.1,0.2-0.1,0.4-0.1s0.5,0.1,0.5,0.4c0.1,0.2,0,0.5-0.1,0.6C210.9,106.4,209.9,106.8,208.9,106.8L208.9,106.8z"/>
			<path class="icons2" d="M186.9,96.9c-1.4,0-2.6-1.2-2.6-2.6s1.2-2.6,2.6-2.6s2.6,1.2,2.6,2.6l0,0C189.6,95.7,188.4,96.9,186.9,96.9z
				 M186.9,92.9c-0.8,0-1.4,0.6-1.4,1.4s0.6,1.4,1.4,1.4c0.8,0,1.4-0.6,1.4-1.4C188.3,93.5,187.7,92.9,186.9,92.9L186.9,92.9z"/>
			<path class="icons2" d="M194.8,101.1c-1.4,0-2.6-1.2-2.6-2.6s1.2-2.6,2.6-2.6c1.4,0,2.6,1.2,2.6,2.6l0,0
				C197.4,100,196.2,101.1,194.8,101.1L194.8,101.1z M194.8,97.1c-0.8,0-1.4,0.6-1.4,1.4s0.6,1.4,1.4,1.4c0.8,0,1.4-0.6,1.4-1.4
				C196.1,97.8,195.5,97.2,194.8,97.1L194.8,97.1z"/>
			<path class="icons2" d="M201.1,95.8c-1.4,0-2.6-1.2-2.6-2.6s1.2-2.6,2.6-2.6c1.4,0,2.6,1.2,2.6,2.6l0,0
				C203.7,94.7,202.5,95.8,201.1,95.8z M201.1,91.8c-0.8,0-1.4,0.6-1.4,1.4s0.6,1.4,1.4,1.4c0.8,0,1.4-0.6,1.4-1.4
				C202.4,92.5,201.8,91.9,201.1,91.8L201.1,91.8z"/>
			
				<rect x="189.7" y="94.3" transform="matrix(0.3598 -0.933 0.933 0.3598 31.6507 239.4514)" class="icons2" width="1.3" height="4.7"/>
			
				<rect x="196.1" y="95.4" transform="matrix(0.7019 -0.7123 0.7123 0.7019 -9.359 169.7905)" class="icons2" width="4.1" height="1.3"/>
		</g>
	</g>
	<g id="Layer_2_2_">
		<g id="Layer_1-2_1_">
			<circle class="icons6" cx="154.1" cy="37.5" r="36.9"/>
			<circle class="icons6" cx="72.3" cy="37.5" r="37"/>
			<circle class="icons6" cx="28.3" cy="98.7" r="27.8"/>
			<circle class="icons6" cx="196.7" cy="98.7" r="27.8"/>
		</g>
	</g>
</g>
</svg>
