<?xml version="1.0" encoding="utf-8"?>
<!-- Generator: Adobe Illustrator 22.0.1, SVG Export Plug-In . SVG Version: 6.00 Build 0)  -->
<svg version="1.1" id="Layer_1" xmlns="http://www.w3.org/2000/svg" xmlns:xlink="http://www.w3.org/1999/xlink" x="0px" y="0px"
	 viewBox="0 0 184.7 119.9" style="enable-background:new 0 0 184.7 119.9;" xml:space="preserve">
<style type="text/css">
	.st0{opacity:0.3;}
	.st1{fill:#31383B;}
	.st2{fill:#44B1BA;stroke:#31383B;stroke-width:0.81;stroke-miterlimit:10;}
	.st3{fill:#4ABDB7;}
	.st4{fill:#FFFFFF;}
	.st5{font-family:'NeoSansArabic-Bold';}
	.st6{font-size:18px;}
</style>
<title>saudi</title>
<g id="Layer_2_1_">
	<g id="Layer_1-2">
		<g class="st0">
			<path class="st1" d="M91,88.7l-0.2,0.2l-0.4,0.4c0-0.1-0.1-0.3-0.1-0.4s0-0.1-0.1-0.2H91z"/>
			<path class="st1" d="M149.4,58.8c-0.6,3.1-1.2,6.2-1.8,9.3c-0.1,0.7-0.5,1.3-1.2,1.5c-6.1,2.4-11.8,4.9-18.3,6
				c-2.5,0.4-5.1,0.7-7.6,1.2c-2.4,0.6-4.5,2-6,4c-1.1,1.6-1.3,4.2-3.2,5c-0.5,0.3-1.2,0.1-1.4-0.4c0,0,0-0.1-0.1-0.1
				c-0.6-1.3-2-1-3.1-1c-1.7,0.1-3.3-0.2-4.8-0.8c-0.2-0.1-0.4-0.2-0.6-0.2c-1.7,0.1-3.4,0.2-5.1,0.4c-0.7,0.2-1.5,0-2.1-0.5
				c-0.3-0.3-0.7-0.4-1.2-0.3c-0.7,0.2-1.1,2.5-0.9,3.1c0.3,1.3-0.2,1.8-0.9,2.6h-0.8c-0.2-0.6-0.4-1.3-0.7-1.8
				c-0.4-0.6-0.9-1.2-1.4-1.6c0-2.1-1.6-3-2.9-4.2c-1.6-1.7-2.8-3.8-3.6-6.1c-0.9-2.6-2.5-4.8-4.6-6.5c-0.9-0.6-2.2-0.8-2.9-1.7
				c-1-1.4-2-2.9-2.8-4.4c-1.5-2.6,0-5.8-1.3-8.3c-0.6-1.1-1-2.3-1.6-3.4c-0.8-1.8-2.2-3.3-3.9-4.3c-2.1-1-2.6-1.8-3.8-3.9
				c0.2-0.1,0.4-0.3,0.4-0.5c0.3-1-0.9-2.6-1.8-2.3c-0.1,0-0.3-0.2-0.5-0.4s-0.4-0.5-0.6-0.5l1.1-0.5c-1.4-1.5-2.7-3.2-3.6-5
				c-0.5-0.8-0.9-1.5-1.4-2.2c-1.1-1.5-2.1-3.1-3.2-4.7s-1.7-1.6-3.7-1.4c0.4-2.5,0.8-4.9,1-7.4c1.5,0.3,3.5,1,5,0.7
				c1.7-0.2,1.7-1.4,2.7-2.6l0.1-0.1c1-1.1,1.9-0.6,3.1-1.3c1-0.5,1.8-2.3,2.5-3.1l-5.4-4.8L56.7,6c1.8-0.6,3.7-1.1,5.5-1.7
				c1.3-0.4,2.8-1.4,4.2-1.6c3.4-0.6,7.1,1.4,9.9,3c5.1,2.8,9.6,6.4,14.2,10c1.1,0.9,2.3,1.7,3.4,2.6c1.3,1,4.1,0.7,5.7,0.9
				c2.2,0.2,4.4,0.4,6.7,0.5c0.8,0,1.5,0.6,1.6,1.4c0.3,1.3,1.3,1.3,2.4,1.2c2.2,0,2.1,0,3,1.9c0.2,0.4,0.4,0.7,0.7,1
				c0.5,0.9,1.1,1.7,1.8,2.5c0.3,0.3,0.7,0.1,1.1,0.5s0,0.9,0.4,1.3c1.5,1,2.8,2,4.1,3.2l-0.6,0.3c0.1,0.1,0.1,0.3,0.2,0.4
				c0,0.1,0.1,0.3,0.2,0.3c1.1,0.5,0.5,1.3,0.5,2.2c0.1,1,0.5,2,1.1,2.9c0.6,1.1,1.3,2.2,2.1,3.3l1,1.4c0.6,0.8,2.4,0.3,3.1,0.2
				l-1,1.6c1.4,0,1.3,1,2,1.9c1.4,1.7,2.8,3.5,4.2,5.2c0.3,0.3,0.7,0.6,1.2,0.6c3.5,0.5,6.9,1,10.4,1.5c0.5,0,1,0,1.6-0.1
				c0.7,1,1.4,2.2,2.2,3.4C149.4,58.1,149.5,58.5,149.4,58.8z"/>
		</g>
		<path class="st2" d="M91,86.7l-0.2,0.2l-0.4,0.4c0-0.1-0.1-0.3-0.1-0.4s0-0.1-0.1-0.2H91z"/>
		<path class="st3" d="M149.4,56.8c-0.6,3.1-1.2,6.2-1.8,9.3c-0.1,0.7-0.5,1.3-1.2,1.5c-6.1,2.4-11.8,4.9-18.3,6
			c-2.5,0.4-5.1,0.7-7.6,1.2c-2.4,0.6-4.5,2-6,4c-1.1,1.6-1.3,4.2-3.2,5c-0.5,0.3-1.2,0.1-1.4-0.4c0,0,0-0.1-0.1-0.1
			c-0.6-1.3-2-1-3.1-1c-1.7,0.1-3.3-0.2-4.8-0.8c-0.2-0.1-0.4-0.2-0.6-0.2c-1.7,0.1-3.4,0.2-5.1,0.4c-0.7,0.2-1.5,0-2.1-0.5
			c-0.3-0.3-0.7-0.4-1.2-0.3c-0.7,0.2-1.1,2.5-0.9,3.1c0.3,1.3-0.2,1.8-0.9,2.6h-0.8c-0.2-0.6-0.4-1.3-0.7-1.9
			c-0.4-0.6-0.9-1.1-1.4-1.6c0-2.1-1.6-3-2.9-4.2c-1.6-1.7-2.8-3.8-3.6-6.1c-0.9-2.6-2.5-4.8-4.6-6.5c-0.9-0.6-2.2-0.8-2.9-1.7
			c-1-1.4-2-2.9-2.8-4.4c-1.5-2.6,0-5.8-1.3-8.3c-0.6-1.1-1-2.3-1.6-3.4c-0.8-1.8-2.2-3.3-3.9-4.3c-2.1-1-2.6-1.8-3.8-3.9
			c0.2-0.1,0.4-0.3,0.4-0.5c0.3-1-0.9-2.6-1.8-2.3c-0.1,0-0.3-0.2-0.5-0.4s-0.4-0.5-0.6-0.5l1.1-0.5c-1.4-1.5-2.7-3.2-3.6-5
			c-0.5-0.8-0.9-1.5-1.4-2.2c-1.1-1.5-2.1-3.1-3.2-4.7s-1.7-1.6-3.7-1.4c0.4-2.5,0.8-4.9,1-7.4c1.5,0.3,3.5,1,5,0.7
			c1.7-0.2,1.7-1.4,2.7-2.6l0.1-0.1c1-1.1,1.9-0.6,3.1-1.3c1-0.5,1.8-2.3,2.5-3.1l-5.4-4.8l0.2-0.3c1.8-0.6,3.7-1.1,5.5-1.7
			c1.3-0.4,2.8-1.4,4.2-1.6c3.4-0.6,7.1,1.4,9.9,3c5.1,2.8,9.6,6.4,14.2,10c1.1,0.9,2.3,1.8,3.4,2.6c1.1,0.9,4.1,0.7,5.7,0.9
			c2.2,0.2,4.4,0.4,6.7,0.5c0.8,0,1.5,0.6,1.6,1.4c0.3,1.3,1.3,1.3,2.4,1.2c2.2,0,2.1,0,3,1.9c0.2,0.4,0.4,0.7,0.7,1
			c0.5,0.9,1.1,1.7,1.8,2.5c0.3,0.3,0.7,0.1,1.1,0.5s0,0.9,0.4,1.3c1.5,1,2.8,2,4.1,3.2l-0.6,0.3c0.1,0.1,0.1,0.3,0.2,0.5
			c0,0.1,0.1,0.3,0.2,0.3c1.1,0.5,0.5,1.3,0.5,2.2c0.1,1,0.5,2,1.1,2.9c0.6,1.1,1.3,2.2,2.1,3.3l1,1.4c0.6,0.8,2.4,0.3,3.1,0.2
			l-1,1.6c1.4,0,1.3,1,2,1.9c1.4,1.7,2.8,3.5,4.2,5.2c0.3,0.3,0.7,0.6,1.2,0.6c3.5,0.5,6.9,1,10.4,1.5c0.5,0,1,0,1.6-0.1
			c0.7,1,1.4,2.2,2.2,3.4C149.4,56.1,149.5,56.5,149.4,56.8z"/>
		<text transform="matrix(1 0 0 1 83.81 51)" class="st4 st5 st6">#1</text>
	</g>
</g>
</svg>
