<?xml version="1.0" encoding="utf-8"?>
<!-- Generator: Adobe Illustrator 22.1.0, SVG Export Plug-In . SVG Version: 6.00 Build 0)  -->
<svg version="1.1" id="Layer_1" xmlns="http://www.w3.org/2000/svg" xmlns:xlink="http://www.w3.org/1999/xlink" x="0px" y="0px"
	 viewBox="0 0 256.1 131.7" style="enable-background:new 0 0 256.1 131.7;" xml:space="preserve">
<style type="text/css">
	.wall0{opacity:0.3;fill:#31383B;enable-background:new    ;}
	.wall1{fill:#4ABDB7;}
	.wall2{fill:#FFFFFF;}
	.wall3{fill:none;stroke:#31383B;stroke-linecap:round;stroke-miterlimit:10;}
	.wall4{opacity:0.3;fill:none;stroke:#31383B;stroke-width:0.94;stroke-miterlimit:10;enable-background:new    ;}
	.wall5{fill:none;stroke:#31383B;stroke-miterlimit:10;}
</style>
<title>wall</title>
<g id="Layer_2_1_">
	<g id="Layer_1-2">
		<path class="wall0" d="M2.5,15.5h251c1.1,0,2,0.9,2,2v112.1c0,1.1-0.9,2-2,2H2.5c-1.1,0-2-0.9-2-2v-112C0.5,16.4,1.4,15.5,2.5,15.5z
			"/>
		<path class="wall1" d="M2.5,12.1h251c1.1,0,2,0.9,2,2v112.1c0,1.1-0.9,2-2,2H2.5c-1.1,0-2-0.9-2-2V14.1C0.5,13,1.4,12.1,2.5,12.1z"
			/>
		<path class="wall2" d="M38.9,67.9c0-0.5,0.1-1.1,0.3-1.6c0.2-0.4,0.5-0.8,0.8-1.1c0.4-0.3,0.8-0.5,1.3-0.6s1.1-0.2,1.7-0.2h0.5H44
			l0.5,0.1c0.1,0,0.3,0,0.4,0.1c0.1,0,0.2,0.1,0.2,0.1c0,0.1,0,0.1,0,0.2v4.5c0,0.4,0.1,0.7,0.3,0.8c0.2,0.1,0.5,0.2,0.8,0.2h1.5
			c0.1,0,0.2,0,0.4-0.1c0.1,0,0.2-0.1,0.3-0.2s0.1-0.2,0.1-0.3v-7.1c0-0.1,0-0.2,0.1-0.2c0.1-0.1,0.1-0.1,0.2-0.1h0.8
			c0.1,0,0.2,0,0.2,0.1c0.1,0.1,0.1,0.1,0.1,0.2V70c0,0.1,0.1,0.2,0.2,0.2c0.1,0.1,0.2,0.1,0.3,0.1s0.3,0.1,0.4,0.1h1.7
			c0.2,0,0.4,0,0.6-0.1c0.1,0,0.1-0.2,0.1-0.5v-9.7c0-0.1,0.1-0.3,0.2-0.3c0,0,0,0,0.1,0h0.8c0.2,0,0.3,0.1,0.3,0.3v9.6
			c0,0.2,0,0.3,0,0.5s0,0.3,0,0.4s0,0.3,0,0.5c0,0.1,0,0.2-0.1,0.3c-0.1,0.1-0.2,0.2-0.3,0.2s-0.2,0.1-0.4,0.1h-0.5h-0.6h-1.5
			c-0.3,0-0.7,0-1-0.1s-0.7-0.2-0.9-0.4c-0.3,0.2-0.6,0.4-0.9,0.4c-0.3,0.1-0.7,0.1-1,0.1h-1.2c-0.4,0-0.8-0.1-1.2-0.2
			c-0.3-0.1-0.6-0.4-0.7-0.7c-0.2,0.3-0.5,0.4-0.8,0.5c-0.4,0.1-0.8,0.2-1.2,0.2h-0.1c-0.8,0.1-1.7-0.2-2.3-0.8
			c-0.6-0.6-0.8-1.5-0.8-2.3L38.9,67.9z M40.2,68.1c0,0.5,0.1,1.1,0.4,1.5c0.4,0.4,0.9,0.6,1.5,0.5h0.3h0.5c0.2,0,0.3-0.1,0.5-0.1
			c0.1-0.1,0.2-0.1,0.3-0.3c0.1-0.1,0.1-0.3,0.1-0.4v-3.6h-0.6h-0.4c-0.3,0-0.7,0-1,0.1S41.2,66,41,66.1c-0.2,0.2-0.4,0.4-0.5,0.7
			c-0.1,0.3-0.2,0.7-0.2,1.1L40.2,68.1z M48.3,61.4c-0.3,0-0.6-0.1-0.8-0.3c-0.1-0.3-0.2-0.5-0.2-0.8V60c0-0.1,0-0.2,0-0.3
			c0-0.2,0.1-0.2,0.2-0.2h0.2c0.1,0,0.1,0,0.2,0.1c0,0,0.1,0.1,0,0.2c0,0.1,0,0.2,0,0.3v0.2c0,0.4,0.1,0.5,0.4,0.5h0.1
			c0.1,0,0.2,0,0.3-0.1c0.1,0,0.2-0.2,0.2-0.4v-0.6c0-0.2,0.1-0.2,0.2-0.2h0.2c0.1,0,0.2,0.1,0.2,0.2v0.6c0,0.2,0.1,0.3,0.2,0.4
			c0.1,0,0.2,0.1,0.3,0.1h0c0.1,0,0.2,0,0.3-0.1s0.1-0.3,0.1-0.4V60c0-0.1,0-0.2,0-0.3s0-0.1,0-0.2c0,0,0.1-0.1,0.2-0.1h0.2
			c0.1,0,0.2,0.1,0.2,0.2c0,0.1,0,0.2,0,0.3v0.2c0,0.3-0.1,0.6-0.2,0.8c-0.2,0.2-0.5,0.4-0.8,0.3h-0.1c-0.1,0-0.3,0-0.4-0.1
			c-0.1,0-0.2-0.1-0.3-0.2l0,0c-0.1,0.1-0.2,0.2-0.3,0.2c-0.1,0.1-0.3,0.1-0.5,0.1L48.3,61.4z M48.8,57.2c0-0.1,0.1-0.2,0.2-0.2h0.3
			c0.1,0,0.1,0,0.2,0.1c0,0,0.1,0.1,0.1,0.2v1.5c0,0.1,0,0.1-0.1,0.2c0,0-0.1,0.1-0.2,0.1H49c-0.1,0-0.1,0-0.2-0.1
			c0,0-0.1-0.1-0.1-0.2L48.8,57.2z"/>
		<path class="wall2" d="M57.2,60.1c0-0.1,0-0.2,0.1-0.2c0.1-0.1,0.1-0.1,0.2-0.1h0.8c0.1,0,0.2,0,0.2,0.1c0.1,0.1,0.1,0.1,0.1,0.2
			v11.3c0,0.1,0,0.2-0.1,0.2c0,0.1-0.1,0.1-0.2,0.1h-0.8c-0.1,0-0.2,0-0.2-0.1c-0.1-0.1-0.1-0.1-0.1-0.2V60.1z"/>
		<path class="wall2" d="M66,67.3c0.2,0,0.3,0.1,0.2,0.3l-0.1,0.8c0,0.3,0,0.5,0,0.7c0,0.5,0,1,0.1,1.6c0.1,0.5,0.2,0.9,0.5,1.3
			s0.7,0.7,1.1,0.8c0.6,0.2,1.3,0.3,1.9,0.3h0.7c0.2,0,0.5,0,0.7-0.1c0-0.3,0-0.6,0-0.8s0-0.4,0-0.6V60.1c0-0.1,0-0.2,0.1-0.2
			c0.1-0.1,0.1-0.1,0.2-0.1h0.8c0.1,0,0.2,0,0.2,0.1c0.1,0.1,0.1,0.1,0.1,0.2v11.4c0,0.1,0,0.3,0,0.5s0,0.4,0,0.7s0,0.5,0,0.7
			s0,0.4,0,0.5s0,0.2-0.1,0.2c-0.1,0.1-0.2,0.1-0.3,0.1c-0.4,0.1-0.8,0.2-1.1,0.2c-0.4,0-0.8,0-1.3,0c-0.8,0-1.6-0.1-2.3-0.3
			c-0.6-0.2-1.1-0.5-1.5-1c-0.4-0.4-0.7-0.9-0.8-1.5c-0.2-0.7-0.2-1.3-0.2-2c0-0.1,0-0.2,0-0.4s0-0.3,0-0.5l0.1-0.6
			c0-0.2,0-0.3,0.1-0.5s0.1-0.3,0.3-0.3L66,67.3z"/>
		<path class="wall2" d="M75.4,74.4c0-0.2,0.1-0.2,0.3-0.2H77c0.4,0,0.8,0,1.1-0.1c0.3,0,0.6-0.1,0.9-0.3c0.2-0.1,0.4-0.3,0.5-0.6
			c0.1-0.3,0.2-0.6,0.2-0.9v-0.6h-1.6c-0.9,0.1-1.8-0.2-2.5-0.8c-0.6-0.7-0.9-1.6-0.8-2.5V68c0-1,0.3-1.9,1-2.6
			c0.8-0.7,1.8-1.1,2.8-1c0.4,0,0.8,0,1.2,0.1c0.3,0,0.7,0.1,1,0.2c0.1,0,0.1,0.1,0.2,0.1c0,0.1,0,0.1,0,0.2v5.4h1.4v1.4H81v0.6
			c0,0.5-0.1,1-0.3,1.5c-0.2,0.4-0.4,0.7-0.8,1c-0.4,0.2-0.8,0.4-1.2,0.5c-0.5,0.1-1,0.2-1.5,0.2h-0.4h-0.5h-0.4h-0.3
			c-0.1,0-0.2,0-0.2-0.1s0-0.1,0-0.2L75.4,74.4z M76.2,68.2c-0.1,0.6,0.1,1.2,0.5,1.6s1,0.6,1.5,0.5h1.6v-4.7h-0.6h-0.7
			c-0.6,0-1.2,0.2-1.7,0.6c-0.4,0.5-0.7,1.1-0.6,1.7C76.2,67.9,76.2,68.2,76.2,68.2z"/>
		<path class="wall2" d="M81.8,70.6c0-0.1,0-0.1,0.2-0.2c0.1,0,0.3-0.1,0.4-0.1h1c0.1,0,0.2,0,0.3-0.1c0.1,0,0.2-0.1,0.3-0.2
			c0.1-0.1,0.1-0.2,0.1-0.3v-3.4c0-0.1,0-0.2,0.1-0.2c0-0.1,0.1-0.1,0.2-0.1h0.7c0.1,0,0.2,0,0.2,0.1c0.1,0.1,0.1,0.1,0.1,0.2V70
			c0,0.1,0.1,0.2,0.2,0.2c0.1,0.1,0.2,0.1,0.3,0.1c0.1,0,0.2,0,0.4,0.1h0.3H87h0.3c0.1,0,0.2,0,0.3-0.1c0.1,0,0.2-0.1,0.3-0.2
			C88,70,88,69.9,88,69.8v-4c0-0.1,0-0.2,0.1-0.2c0.1-0.1,0.1-0.1,0.2-0.1H89c0.1,0,0.2,0,0.2,0.1c0.1,0.1,0.1,0.1,0.1,0.2V70
			c0,0.1,0.1,0.2,0.2,0.2c0.1,0.1,0.2,0.1,0.3,0.1c0.1,0,0.3,0.1,0.4,0.1h0.4h0.9c0.1,0,0.1,0,0.2-0.1c0.1,0,0.1-0.1,0.1-0.2
			s0-0.2,0-0.3v-2.2c0-0.8,0-1.6,0-2.4c0-0.1,0.1-0.2,0.1-0.2c0.1-0.1,0.1-0.1,0.2-0.1H93c0.1,0,0.2,0,0.2,0.1
			c0.1,0.1,0.1,0.1,0.1,0.2c0,0.4,0,0.7,0,1s0,0.6,0,0.8v2.7c0,0.2,0,0.3,0,0.5s0,0.3,0,0.5s0,0.3,0,0.4s-0.1,0.2-0.1,0.3
			c-0.1,0.1-0.2,0.2-0.3,0.2c-0.2,0.1-0.5,0.1-0.7,0.1c-0.3,0-0.6,0-1,0h-0.3c-0.4,0-0.8,0-1.1-0.1c-0.4-0.1-0.7-0.2-1-0.4
			c-0.2,0.2-0.5,0.3-0.8,0.4s-0.7,0.1-1,0.1h-0.3c-0.3,0-0.7,0-1-0.1s-0.6-0.2-0.9-0.4c-0.3,0.2-0.6,0.4-0.9,0.4
			c-0.3,0.1-0.7,0.1-1,0.1h-0.5c-0.1,0-0.3,0-0.4-0.1c-0.1,0-0.2-0.1-0.2-0.2L81.8,70.6z"/>
		<path class="wall2" d="M94,74.4c0-0.2,0.1-0.2,0.3-0.2h0.3c0.3,0,0.6,0,0.9,0c0.2,0,0.4-0.1,0.5-0.2s0.2-0.3,0.3-0.5
			c0.1-0.3,0.1-0.6,0.1-0.8v-7c0-0.1,0-0.2,0.1-0.2c0.1-0.1,0.1-0.1,0.2-0.1h0.8c0.1,0,0.1,0,0.2,0.1s0.1,0.1,0.1,0.2v6.9
			c0,0.3,0,0.7-0.1,1c0,0.3-0.1,0.6-0.3,0.9c-0.2,0.4-0.5,0.6-0.9,0.8c-0.5,0.2-1,0.2-1.5,0.2h-0.3c-0.1,0-0.3,0-0.4,0
			s-0.1,0-0.2-0.1c0,0-0.1-0.1-0.1-0.2V74.4z"/>
		<path class="wall2" d="M103.6,70.7c0-0.1,0-0.2,0.1-0.2c0.1-0.1,0.1-0.1,0.2-0.1h4.3v-2c0-0.8-0.2-1.5-0.7-2.1
			c-0.6-0.5-1.4-0.7-2.2-0.7h-0.5c-0.2,0-0.4,0-0.6,0s-0.3,0-0.3-0.2v-0.7c0-0.1,0-0.2,0.1-0.2c0.1-0.1,0.2-0.1,0.2-0.1
			c0.3,0,0.5-0.1,0.8-0.1h0.6c0.6,0,1.2,0.1,1.8,0.3c0.5,0.2,0.9,0.4,1.2,0.8c0.3,0.4,0.5,0.8,0.7,1.2c0.1,0.5,0.2,1,0.2,1.6v2h1
			v1.4h-6.7c-0.1,0-0.2,0-0.2-0.1c-0.1,0-0.1-0.1-0.1-0.2L103.6,70.7z"/>
		<path class="wall2" d="M110,70.6c0-0.1,0-0.1,0.2-0.2c0.1,0,0.3-0.1,0.4-0.1h0.8c0.1,0,0.2,0,0.4-0.1c0.1,0,0.2-0.1,0.3-0.1
			c0.1-0.1,0.1-0.1,0.2-0.2c0-0.2,0-0.3,0-0.5v-1.5c-0.1-0.9,0.2-1.8,0.8-2.5c0.7-0.6,1.5-0.9,2.4-0.9c0.9-0.1,1.7,0.2,2.4,0.8
			c0.6,0.7,0.9,1.6,0.8,2.5v0.9c0,0.1,0,0.3,0,0.4s0,0.3,0,0.4s0.1,0.3,0.2,0.4s0.2,0.2,0.3,0.2c0.1,0.1,0.2,0.1,0.4,0.1h0.3h0.2
			v1.4h-0.2c-0.3,0-0.7-0.1-1-0.2s-0.6-0.2-0.8-0.5c-0.6,0.8-1.6,1.2-2.5,1.1c-0.5,0-1.1-0.1-1.6-0.3c-0.4-0.1-0.8-0.4-1.1-0.8
			c-0.2,0.2-0.5,0.4-0.8,0.5c-0.4,0.1-0.7,0.1-1.1,0.1h-0.4c-0.1,0-0.3,0-0.4-0.1c-0.1,0-0.2-0.1-0.2-0.2L110,70.6z M113.6,68.1v0.7
			c0,0.3,0,0.6,0.1,0.9c0,0.4,0.3,0.8,0.6,1c0.4,0.2,0.8,0.3,1.2,0.3c0.6,0.1,1.1-0.1,1.5-0.5c0.3-0.5,0.5-1,0.4-1.6v-0.7
			c0-0.6-0.1-1.2-0.4-1.7c-0.4-0.4-0.9-0.6-1.4-0.6c-0.6-0.1-1.1,0.2-1.5,0.6C113.7,66.9,113.5,67.5,113.6,68.1L113.6,68.1z"/>
		<path class="wall2" d="M119.9,71.7c-0.1,0-0.3,0-0.4-0.1c-0.1,0-0.1-0.1-0.1-0.2v-0.9c0-0.1,0.1-0.1,0.2-0.2c0.1,0,0.3-0.1,0.4-0.1
			h7.4l-0.6-1.4l-0.4-0.8c-0.3-0.7-0.7-1.3-1.3-1.8c-0.7-0.4-1.5-0.6-2.4-0.6h-0.5h-0.6c-0.2,0-0.3,0-0.3-0.2V65
			c0-0.1,0-0.1,0.1-0.2s0.2-0.1,0.2-0.1c0.2-0.1,0.5-0.1,0.7-0.1h0.8c0.5,0,1,0,1.5,0.2c0.5,0.1,0.9,0.3,1.3,0.6
			c0.4,0.3,0.8,0.7,1.2,1.1c0.4,0.6,0.7,1.2,1,1.8l0.2,0.4l0.6,1.6c0,0.1,0.1,0.1,0.1,0.2c0.1,0,0.1,0,0.2,0h0.1v1.4L119.9,71.7z"/>
		<path class="wall2" d="M128.5,70.6c0-0.1,0-0.1,0.2-0.2c0.1,0,0.3-0.1,0.4-0.1h0.8c0.1,0,0.2,0,0.4-0.1c0.1,0,0.2-0.1,0.3-0.2
			s0.2-0.2,0.2-0.3c0-0.2,0.1-0.3,0.1-0.5v-1.5c-0.1-0.9,0.2-1.8,0.9-2.5c0.7-0.6,1.5-0.9,2.4-0.9c0.9-0.1,1.8,0.2,2.4,0.9
			c0.6,0.7,0.9,1.6,0.8,2.5v0.8c0.1,0.9-0.2,1.8-0.8,2.5c-0.7,0.6-1.6,0.9-2.5,0.8c-0.5,0-1.1-0.1-1.6-0.2c-0.4-0.1-0.8-0.4-1.1-0.7
			c-0.2,0.3-0.5,0.5-0.8,0.6c-0.4,0.1-0.8,0.2-1.2,0.2H129c-0.1,0-0.3,0-0.4-0.1c-0.1,0-0.2-0.1-0.2-0.2L128.5,70.6z M132,68.7
			c0,0.3,0,0.6,0.1,0.9c0,0.4,0.3,0.8,0.6,1c0.4,0.2,0.8,0.3,1.2,0.2c0.5,0.1,1.1-0.1,1.5-0.5c0.3-0.5,0.5-1.1,0.4-1.7V68
			c0-0.6-0.1-1.2-0.4-1.7c-0.3-0.4-0.9-0.7-1.4-0.6c-0.6-0.1-1.1,0.2-1.5,0.6c-0.4,0.5-0.5,1.1-0.5,1.7L132,68.7L132,68.7z"/>
		<path class="wall2" d="M143.1,67.9c0-0.5,0.1-1.1,0.3-1.6c0.2-0.4,0.5-0.8,0.9-1.1c0.4-0.3,0.8-0.5,1.3-0.6s1.1-0.2,1.7-0.2h0.5h0.5
			l0.5,0.1c0.1,0,0.3,0,0.4,0.1c0.1,0,0.2,0.1,0.2,0.1c0,0.1,0,0.1,0,0.2v4.5c0,0.4,0.1,0.7,0.3,0.8c0.2,0.1,0.5,0.2,0.8,0.2h1.4
			c0.1,0,0.2,0,0.4-0.1c0.1,0,0.2-0.1,0.3-0.2s0.1-0.2,0.1-0.3v-7.1c0-0.1,0-0.2,0.1-0.2c0.1-0.1,0.1-0.1,0.2-0.1h0.8
			c0.1,0,0.2,0,0.2,0.1c0.1,0.1,0.1,0.1,0.1,0.2V70c0,0.1,0.1,0.2,0.2,0.2c0.1,0.1,0.2,0.1,0.3,0.1s0.3,0.1,0.4,0.1h1.7
			c0.2,0,0.4,0,0.6-0.1c0.1,0,0.1-0.2,0.1-0.5v-9.7c0-0.1,0.1-0.3,0.2-0.3c0,0,0,0,0.1,0h0.8c0.2,0,0.3,0.1,0.3,0.3v9.6
			c0,0.2,0,0.3,0,0.5s0,0.3,0,0.4s0,0.3-0.1,0.5c0,0.1,0,0.2-0.1,0.3c-0.1,0.1-0.2,0.2-0.3,0.2s-0.2,0.1-0.4,0.1h-0.5h-0.6h-1.5
			c-0.3,0-0.7,0-1-0.1s-0.7-0.2-0.9-0.4c-0.3,0.2-0.6,0.4-0.9,0.4c-0.3,0.1-0.7,0.1-1,0.1h-1.1c-0.4,0-0.8-0.1-1.2-0.2
			c-0.3-0.1-0.6-0.4-0.7-0.7c-0.2,0.3-0.5,0.4-0.8,0.5c-0.4,0.1-0.8,0.2-1.2,0.2h-0.1c-0.8,0.1-1.7-0.2-2.3-0.8
			c-0.6-0.6-0.8-1.5-0.8-2.3L143.1,67.9z M144.4,68.1c0,0.5,0.1,1.1,0.4,1.5c0.4,0.4,0.9,0.6,1.5,0.5h0.3h0.5c0.2,0,0.3-0.1,0.5-0.1
			c0.1-0.1,0.2-0.1,0.3-0.3c0.1-0.1,0.1-0.3,0.1-0.4v-3.6h-0.6H147c-0.3,0-0.7,0-1,0.1s-0.6,0.2-0.8,0.3c-0.2,0.2-0.4,0.4-0.5,0.7
			c-0.1,0.3-0.2,0.7-0.2,1.1L144.4,68.1z M152.5,61.4c-0.3,0-0.6-0.1-0.8-0.3c-0.1-0.3-0.2-0.5-0.2-0.8V60c0-0.1,0-0.2,0-0.3
			c0-0.2,0.1-0.2,0.2-0.2h0.2c0.1,0,0.1,0,0.1,0.1s0,0.1,0,0.2c0,0.1,0,0.2,0,0.3v0.2c0,0.4,0.1,0.5,0.4,0.5h0.1
			c0.1,0,0.2,0,0.3-0.1c0.1,0,0.2-0.2,0.2-0.4v-0.6c0-0.2,0.1-0.2,0.2-0.2h0.2c0.1,0,0.2,0.1,0.2,0.2v0.6c0,0.2,0.1,0.3,0.2,0.4
			c0.1,0,0.2,0.1,0.3,0.1h0.1c0.1,0,0.2,0,0.3-0.1s0.1-0.3,0.1-0.4V60c0-0.1,0-0.2,0-0.3s0-0.1,0-0.2c0,0,0.1-0.1,0.2-0.1h0.2
			c0.1,0,0.2,0.1,0.2,0.2c0,0.1,0,0.2,0,0.3v0.2c0,0.3-0.1,0.6-0.2,0.8c-0.2,0.2-0.5,0.4-0.8,0.3h-0.1c-0.1,0-0.3,0-0.4-0.1
			c-0.1,0-0.2-0.1-0.3-0.2l0,0c-0.1,0.1-0.2,0.2-0.4,0.2C152.9,61.4,152.7,61.4,152.5,61.4L152.5,61.4z M153.1,57.2
			c0-0.1,0.1-0.2,0.2-0.2h0.3c0.1,0,0.1,0,0.1,0.1c0,0,0.1,0.1,0.1,0.2v1.5c0,0.1,0,0.1-0.1,0.2l-0.1,0.1h-0.3c-0.1,0-0.1,0-0.1-0.1
			c0,0-0.1-0.1-0.1-0.2L153.1,57.2z"/>
		<path class="wall2" d="M161.5,60.1c0-0.1,0-0.2,0.1-0.2c0.1-0.1,0.1-0.1,0.2-0.1h0.8c0.1,0,0.2,0,0.2,0.1c0.1,0.1,0.1,0.1,0.1,0.2
			v11.3c0,0.1,0,0.2-0.1,0.2c0,0.1-0.1,0.1-0.2,0.1h-0.8c-0.1,0-0.2,0-0.2-0.1c-0.1-0.1-0.1-0.1-0.1-0.2V60.1z"/>
		<path class="wall2" d="M168.9,70.7c0-0.1,0.1-0.3,0.2-0.3h0.1h5.8c0.2,0,0.4,0,0.6-0.1c0.1,0,0.1-0.2,0.1-0.5v-9.7
			c0-0.1,0-0.2,0.1-0.2c0.1-0.1,0.1-0.1,0.2-0.1h0.8c0.1,0,0.2,0,0.2,0.1s0.1,0.1,0.1,0.2v9.2c0,0.4,0,0.8,0,1.1s0,0.5-0.1,0.8
			c0,0.1,0,0.2-0.1,0.3c-0.1,0.1-0.1,0.2-0.2,0.2c-0.1,0-0.2,0.1-0.4,0.1h-0.5c-0.2,0-0.4,0-0.6,0h-5.9c-0.2,0-0.3-0.1-0.3-0.3
			L168.9,70.7z M171.1,61.1c0-0.2,0.1-0.3,0.3-0.3h0.8c0.2,0,0.3,0.1,0.3,0.3v7.6c0,0.2-0.1,0.3-0.3,0.3h-0.7
			c-0.1,0-0.3-0.1-0.3-0.2v-0.1v-7.6H171.1z"/>
		<path class="wall2" d="M179.3,75.6c-0.2,0-0.3-0.1-0.3-0.2v-0.3c0-0.1,0.1-0.2,0.3-0.2h0.3c-0.1-0.1-0.2-0.3-0.2-0.4
			c0-0.2-0.1-0.3-0.1-0.5c0-0.4,0.1-0.8,0.4-1c0.3-0.2,0.7-0.3,1.1-0.3h0.3h0.3c0.1,0,0.2,0.1,0.2,0.2v0.2c0,0.1-0.1,0.2-0.2,0.2
			h-0.5c-0.6,0-0.8,0.2-0.8,0.7c0,0.2,0,0.4,0.1,0.6c0.1,0.1,0.1,0.2,0.2,0.3h1.1c0.2,0,0.3,0.1,0.3,0.2v0.2c0,0.1,0,0.1-0.1,0.2
			c-0.1,0-0.1,0-0.2,0L179.3,75.6z M179.9,60.1c0-0.1,0-0.2,0.1-0.2c0.1-0.1,0.1-0.1,0.2-0.1h0.8c0.1,0,0.2,0,0.2,0.1
			c0.1,0.1,0.1,0.1,0.1,0.2v11.3c0,0.1,0,0.2-0.1,0.2c0,0.1-0.1,0.1-0.2,0.1h-0.8c-0.1,0-0.2,0-0.2-0.1c-0.1-0.1-0.1-0.1-0.1-0.2
			V60.1z"/>
		<path class="wall2" d="M187.6,67.9c0-0.5,0.1-1.1,0.3-1.6c0.2-0.4,0.5-0.8,0.9-1.1c0.4-0.3,0.8-0.5,1.3-0.6s1.1-0.2,1.7-0.2h0.5h0.5
			l0.5,0.1c0.1,0,0.3,0,0.4,0.1c0.1,0,0.1,0.1,0.2,0.1c0,0.1,0,0.1,0,0.2v4.5c0,0.4,0.1,0.7,0.3,0.8c0.2,0.1,0.5,0.2,0.8,0.2h0.4
			v1.4h-0.5c-0.4,0-0.8-0.1-1.2-0.2c-0.3-0.1-0.6-0.4-0.7-0.7c-0.2,0.3-0.5,0.4-0.8,0.5c-0.4,0.1-0.8,0.2-1.2,0.2h-0.1
			c-0.8,0.1-1.7-0.2-2.3-0.8c-0.6-0.6-0.9-1.5-0.8-2.3L187.6,67.9z M188.9,68.1c0,0.5,0.1,1.1,0.4,1.5c0.4,0.4,0.9,0.6,1.5,0.5h0.3
			h0.5c0.1,0,0.3-0.1,0.4-0.2c0.1-0.1,0.2-0.1,0.3-0.3c0.1-0.1,0.1-0.3,0.1-0.4v-3.6h-0.6h-0.4c-0.4,0-0.7,0-1.1,0.1
			c-0.3,0.1-0.6,0.2-0.8,0.3c-0.2,0.2-0.4,0.4-0.5,0.7c-0.1,0.3-0.2,0.7-0.2,1.1L188.9,68.1z"/>
		<path class="wall2" d="M194.7,70.6c0-0.1,0-0.1,0.2-0.2c0.1,0,0.3-0.1,0.4-0.1h1.3c0.2,0,0.4,0,0.6-0.1c0.1,0,0.1-0.2,0.1-0.5V60
			c0-0.2,0.1-0.3,0.3-0.3h0.8c0.1,0,0.2,0,0.2,0.1c0.1,0.1,0.1,0.1,0.1,0.2v9.6c0,0.2,0,0.3,0,0.5s0,0.3,0,0.5s0,0.3-0.1,0.4
			c0,0.1,0,0.2-0.1,0.3c-0.1,0.1-0.1,0.2-0.2,0.2c-0.1,0-0.2,0.1-0.4,0.1h-0.5c-0.2,0-0.4,0-0.6,0h-1.4c-0.1,0-0.3,0-0.4-0.1
			c-0.1,0-0.2-0.1-0.2-0.2L194.7,70.6z"/>
		<path class="wall2" d="M200.7,75.6c-0.2,0-0.3-0.1-0.3-0.2v-0.3c0-0.1,0.1-0.2,0.3-0.2h0.3c-0.1-0.1-0.2-0.3-0.2-0.4
			c0-0.2-0.1-0.3-0.1-0.5c0-0.4,0.1-0.8,0.4-1c0.3-0.2,0.7-0.3,1.1-0.3h0.3h0.3c0.1,0,0.2,0.1,0.2,0.2v0.2c0,0.1-0.1,0.2-0.2,0.2
			h-0.5c-0.6,0-0.8,0.2-0.8,0.7c0,0.2,0,0.4,0.1,0.6c0.1,0.1,0.1,0.2,0.2,0.3h1.1c0.2,0,0.3,0.1,0.3,0.2v0.2c0,0.1,0,0.1-0.1,0.2
			c-0.1,0-0.1,0-0.2,0L200.7,75.6z M201.2,60.1c0-0.1,0-0.2,0.1-0.2c0.1-0.1,0.1-0.1,0.2-0.1h0.8c0.1,0,0.2,0,0.2,0.1
			c0.1,0.1,0.1,0.1,0.1,0.2v11.3c0,0.1,0,0.2-0.1,0.2c0,0.1-0.1,0.1-0.2,0.1h-0.8c-0.1,0-0.2,0-0.2-0.1c-0.1-0.1-0.1-0.1-0.1-0.2
			V60.1z"/>
		<path class="wall2" d="M208.7,70.7c0-0.1,0.1-0.3,0.2-0.3h0.1h5.7c0.2,0,0.4,0,0.6-0.1c0.1,0,0.1-0.2,0.1-0.5v-9.7
			c0-0.1,0-0.2,0.1-0.2c0.1-0.1,0.1-0.1,0.2-0.1h0.8c0.1,0,0.2,0,0.2,0.1s0.1,0.1,0.1,0.2v9.2c0,0.4,0,0.8,0,1.1s0,0.5-0.1,0.8
			c0,0.1,0,0.2-0.1,0.3c-0.1,0.1-0.1,0.2-0.2,0.2c-0.1,0-0.2,0.1-0.4,0.1h-0.5c-0.2,0-0.4,0-0.6,0H209c-0.2,0-0.3-0.1-0.3-0.3V70.7z
			 M210.8,61.1c0-0.2,0.1-0.3,0.3-0.3h0.8c0.2,0,0.3,0.1,0.3,0.3v7.6c0,0.2-0.1,0.3-0.3,0.3h-0.7c-0.1,0-0.3-0.1-0.3-0.2v-0.1v-7.6
			H210.8z"/>
	</g>
</g>
<g id="Layer_2_2_">
	<g id="Layer_1-2_1_">
		<polyline class="wall3" points="84.6,12 128.5,0.5 172.3,12.1 		"/>
		<polyline class="wall4" points="90,12.1 129.2,0.8 167.7,12.1 		"/>
		<path class="wall5" d="M2.5,12.1h251c1.1,0,2,0.9,2,2v112.1c0,1.1-0.9,2-2,2H2.5c-1.1,0-2-0.9-2-2V14.1C0.5,13,1.4,12.1,2.5,12.1z"
			/>
	</g>
</g>
</svg>
