<svg xmlns="http://www.w3.org/2000/svg" viewBox="0 0 147.84 49.52"><defs><style>.cls-1{fill:#fff;}</style></defs><title>google-play</title><g id="Layer_2" data-name="Layer 2"><g id="Layer_1-2" data-name="Layer 1"><path class="cls-1" d="M140.51,49.52H7.32A7.33,7.33,0,0,1,0,42.2V7.32A7.34,7.34,0,0,1,7.32,0H140.51a7.34,7.34,0,0,1,7.33,7.32V42.2A7.33,7.33,0,0,1,140.51,49.52ZM7.32,1.73A5.6,5.6,0,0,0,1.73,7.32V42.2a5.6,5.6,0,0,0,5.59,5.59H140.51a5.6,5.6,0,0,0,5.6-5.59V7.32a5.6,5.6,0,0,0-5.6-5.59Z"/><path class="cls-1" d="M49.13,14.46h-1a7.08,7.08,0,0,0-.28-1.15H46.45a6.1,6.1,0,0,0-.29,1.15h-.92c0-.08.24-.74.71-2a15.68,15.68,0,0,0,.72-2h1.16a17.62,17.62,0,0,0,.65,2A17.62,17.62,0,0,1,49.13,14.46Zm-1.42-1.74A15.67,15.67,0,0,1,47.19,11h0c0,.08-.19.65-.55,1.71Z"/><path class="cls-1" d="M53.08,14.46h-.75a7.61,7.61,0,0,0-.85-1.33,7.23,7.23,0,0,1-1-1.74h0a11.09,11.09,0,0,1,.07,1.22c0,.5,0,1.12,0,1.85h-.76c0-.64.05-1.34.05-2.09s0-1.39-.05-1.91h.91a6.13,6.13,0,0,0,.76,1.3,7.7,7.7,0,0,1,.93,1.63h0a11.09,11.09,0,0,1-.07-1.22c0-.56,0-1.13,0-1.71h.76c0,.51,0,1.14,0,1.91S53.06,13.83,53.08,14.46Z"/><path class="cls-1" d="M57.53,12.32A2.22,2.22,0,0,1,57,13.84a1.92,1.92,0,0,1-1.56.65l-1.25,0c0-.62,0-1.32,0-2.09s0-1.38,0-1.91h1.27A2.08,2.08,0,0,1,57,11,1.88,1.88,0,0,1,57.53,12.32Zm-.84.13a1.47,1.47,0,0,0-.34-1,1.3,1.3,0,0,0-1.05-.4,2.57,2.57,0,0,0-.36,0q0,.62,0,1.29c0,.48,0,1,0,1.45a1.81,1.81,0,0,0,.4,0,1.18,1.18,0,0,0,1-.41A1.59,1.59,0,0,0,56.69,12.45Z"/><path class="cls-1" d="M61.63,14.46h-.91a5.64,5.64,0,0,0-.54-1.35.72.72,0,0,0-.62-.25h-.34c0,.53,0,1.06,0,1.6H58.4c0-.62,0-1.32,0-2.09s0-1.38,0-1.91h1.46c.94,0,1.4.32,1.4,1a1.08,1.08,0,0,1-.8,1.07v0A.88.88,0,0,1,61,13,9.32,9.32,0,0,1,61.63,14.46Zm-1.15-2.83c0-.4-.26-.61-.78-.61a3.52,3.52,0,0,0-.51,0c0,.32,0,.73,0,1.24h.29C60.16,12.31,60.48,12.08,60.48,11.63Z"/><path class="cls-1" d="M66,12.38A2.21,2.21,0,0,1,65.45,14a1.87,1.87,0,0,1-1.42.62A1.82,1.82,0,0,1,62.67,14a2,2,0,0,1-.54-1.45A2.21,2.21,0,0,1,62.7,11a1.86,1.86,0,0,1,1.43-.62,1.82,1.82,0,0,1,1.36.57A2,2,0,0,1,66,12.38Zm-.85.09a1.65,1.65,0,0,0-.32-1,1,1,0,0,0-.81-.4.92.92,0,0,0-.76.41,1.57,1.57,0,0,0-.32,1,1.58,1.58,0,0,0,.33,1,1,1,0,0,0,.81.4.93.93,0,0,0,.76-.4A1.61,1.61,0,0,0,65.18,12.47Z"/><path class="cls-1" d="M67.77,14.46H66.9c0-.64,0-1.34,0-2.09s0-1.39,0-1.91h.87c0,.52,0,1.15,0,1.91S67.74,13.83,67.77,14.46Z"/><path class="cls-1" d="M72.21,12.32a2.26,2.26,0,0,1-.55,1.52,2,2,0,0,1-1.57.65l-1.25,0c0-.62,0-1.32,0-2.09s0-1.38,0-1.91h1.27a2.12,2.12,0,0,1,1.61.55A1.92,1.92,0,0,1,72.21,12.32Zm-.83.13a1.48,1.48,0,0,0-.35-1,1.3,1.3,0,0,0-1-.4,2.64,2.64,0,0,0-.36,0q0,.62,0,1.29c0,.48,0,1,0,1.45a1.87,1.87,0,0,0,.4,0,1.17,1.17,0,0,0,1-.41A1.6,1.6,0,0,0,71.38,12.45Z"/><path class="cls-1" d="M78.11,14.46h-1a6.07,6.07,0,0,0-.28-1.15H75.44a5.35,5.35,0,0,0-.29,1.15h-.93c0-.08.24-.74.72-2a15.68,15.68,0,0,0,.72-2h1.16a15.47,15.47,0,0,0,.65,2A16.3,16.3,0,0,1,78.11,14.46ZM76.7,12.72A17.44,17.44,0,0,1,76.17,11h0q0,.12-.54,1.71Z"/><path class="cls-1" d="M81.69,11.51a1.19,1.19,0,0,1-.54,1.08,2.45,2.45,0,0,1-1.34.35h-.2q0,.59,0,1.53h-.86c0-.6,0-1.29,0-2.09s0-1.38,0-1.91h1.53a1.71,1.71,0,0,1,1,.27A.88.88,0,0,1,81.69,11.51Zm-.79.17Q80.9,11,80,11a2.53,2.53,0,0,0-.46,0q0,.58,0,1.32h.18C80.53,12.38,80.9,12.15,80.9,11.68Z"/><path class="cls-1" d="M85.37,11.51a1.19,1.19,0,0,1-.54,1.08,2.45,2.45,0,0,1-1.34.35h-.2q0,.59,0,1.53h-.86c0-.6,0-1.29,0-2.09s0-1.38,0-1.91H84a1.71,1.71,0,0,1,1,.27A.88.88,0,0,1,85.37,11.51Zm-.79.17q0-.66-.87-.66a2.53,2.53,0,0,0-.46,0q0,.58,0,1.32h.18C84.21,12.38,84.58,12.15,84.58,11.68Z"/><path class="cls-1" d="M91.39,12.38A2.21,2.21,0,0,1,90.81,14a1.87,1.87,0,0,1-1.42.62A1.82,1.82,0,0,1,88,14a2,2,0,0,1-.54-1.45A2.21,2.21,0,0,1,88.06,11a1.86,1.86,0,0,1,1.43-.62,1.82,1.82,0,0,1,1.36.57A2,2,0,0,1,91.39,12.38Zm-.85.09a1.59,1.59,0,0,0-.32-1,1,1,0,0,0-.81-.4,1,1,0,0,0-.77.41,1.62,1.62,0,0,0-.31,1,1.58,1.58,0,0,0,.33,1,1,1,0,0,0,.81.4.93.93,0,0,0,.76-.4A1.61,1.61,0,0,0,90.54,12.47Z"/><path class="cls-1" d="M95.55,14.46h-.76A7.16,7.16,0,0,0,94,13.13a7.4,7.4,0,0,1-1-1.74h0A11.29,11.29,0,0,1,93,12.61c0,.5,0,1.12,0,1.85h-.75c0-.64,0-1.34,0-2.09s0-1.39,0-1.91h.91a5.65,5.65,0,0,0,.76,1.3,7.49,7.49,0,0,1,.92,1.63h.05a11.09,11.09,0,0,1-.07-1.22c0-.56,0-1.13,0-1.71h.77c0,.51,0,1.14,0,1.91S95.52,13.83,95.55,14.46Z"/><path class="cls-1" d="M59.35,27.26A6.4,6.4,0,0,1,57.59,32a6.87,6.87,0,0,1-5.22,2.11A7.34,7.34,0,0,1,45,26.68a7.34,7.34,0,0,1,7.38-7.42,7.3,7.3,0,0,1,2.92.6,5.86,5.86,0,0,1,2.22,1.59l-1.25,1.24A4.81,4.81,0,0,0,52.37,21a5.48,5.48,0,0,0-5.51,5.67,5.59,5.59,0,0,0,9.48,4.09,4.53,4.53,0,0,0,1.19-2.88H52.37V26.18h6.88A5.87,5.87,0,0,1,59.35,27.26Z"/><path class="cls-1" d="M61.51,25.22a5.12,5.12,0,0,1,7.18,0,5.16,5.16,0,0,1,1.41,3.7,5.16,5.16,0,0,1-1.41,3.7,5.09,5.09,0,0,1-7.18,0,5.16,5.16,0,0,1-1.41-3.7A5.16,5.16,0,0,1,61.51,25.22Zm1.36,6.25a3.07,3.07,0,0,0,4.46,0,3.47,3.47,0,0,0,.94-2.55,3.47,3.47,0,0,0-.94-2.55,3.07,3.07,0,0,0-4.46,0,3.47,3.47,0,0,0-.94,2.55A3.47,3.47,0,0,0,62.87,31.47Z"/><path class="cls-1" d="M72.12,25.22a5.12,5.12,0,0,1,7.18,0,5.16,5.16,0,0,1,1.41,3.7,5.16,5.16,0,0,1-1.41,3.7,5.09,5.09,0,0,1-7.18,0,5.16,5.16,0,0,1-1.41-3.7A5.16,5.16,0,0,1,72.12,25.22Zm1.36,6.25a3.07,3.07,0,0,0,4.46,0,3.47,3.47,0,0,0,.94-2.55,3.47,3.47,0,0,0-.94-2.55,3.07,3.07,0,0,0-4.46,0,3.47,3.47,0,0,0-.94,2.55A3.47,3.47,0,0,0,73.48,31.47Z"/><path class="cls-1" d="M86.1,38.38a4.4,4.4,0,0,1-2.81-.86,5.13,5.13,0,0,1-1.57-2l1.66-.69a2.88,2.88,0,0,0,2.72,1.86,3.11,3.11,0,0,0,2.37-.9,3.38,3.38,0,0,0,.86-2.45v-.93h-.08a3.63,3.63,0,0,1-1.34,1.19,4,4,0,0,1-2,.48,4.28,4.28,0,0,1-3.25-1.49,5.25,5.25,0,0,1-1.37-3.69,5.25,5.25,0,0,1,1.37-3.69,4.27,4.27,0,0,1,3.25-1.48,4,4,0,0,1,2,.47,3.72,3.72,0,0,1,1.34,1.19h.08V24.06h1.75v9.22a4.83,4.83,0,0,1-1.45,3.8A5.07,5.07,0,0,1,86.1,38.38Zm.14-6a2.92,2.92,0,0,0,2.19-.95,3.59,3.59,0,0,0,.9-2.56,3.59,3.59,0,0,0-.9-2.56,3,3,0,0,0-4.37,0,3.54,3.54,0,0,0-.91,2.55,3.54,3.54,0,0,0,.91,2.55A2.9,2.9,0,0,0,86.24,32.43Z"/><path class="cls-1" d="M94.63,33.78H92.8V19.58h1.83Z"/><path class="cls-1" d="M100.66,34.1a4.67,4.67,0,0,1-3.58-1.47,5.21,5.21,0,0,1-1.38-3.71A5.33,5.33,0,0,1,97,25.27a4.36,4.36,0,0,1,3.42-1.52,4.51,4.51,0,0,1,3.46,1.4,5.38,5.38,0,0,1,1.3,3.77l0,.34H97.52a3.29,3.29,0,0,0,1,2.32,3,3,0,0,0,2.12.85,2.61,2.61,0,0,0,2.65-1.66l1.63.67a4.38,4.38,0,0,1-1.57,1.89A4.53,4.53,0,0,1,100.66,34.1Zm2.61-6.35a2.57,2.57,0,0,0-.76-1.58,2.71,2.71,0,0,0-2.09-.76,2.6,2.6,0,0,0-1.76.64,3.3,3.3,0,0,0-1,1.7Z"/><path class="cls-1" d="M112.39,33.78h-1.82V19.58h4.84a4.48,4.48,0,0,1,3.12,1.2,4.13,4.13,0,0,1,0,6,4.48,4.48,0,0,1-3.12,1.2h-3Zm0-7.5h3.06a2.34,2.34,0,0,0,1.84-.77,2.43,2.43,0,0,0,0-3.41,2.34,2.34,0,0,0-1.84-.77h-3.06Z"/><path class="cls-1" d="M122.86,33.78H121V19.58h1.82Z"/><path class="cls-1" d="M127.56,34.1a3.79,3.79,0,0,1-2.58-.9,3.14,3.14,0,0,1,.18-4.84,4.94,4.94,0,0,1,3-.91,5.21,5.21,0,0,1,2.64.6v-.28a2.17,2.17,0,0,0-.74-1.71,2.64,2.64,0,0,0-1.8-.65,2.82,2.82,0,0,0-1.44.38,1.92,1.92,0,0,0-.88,1l-1.67-.71a3.76,3.76,0,0,1,1.33-1.62,4.22,4.22,0,0,1,2.62-.74,4.47,4.47,0,0,1,3.09,1.09,3.88,3.88,0,0,1,1.23,3.07v5.87h-1.74V32.43h-.08A3.6,3.6,0,0,1,127.56,34.1Zm.3-1.67a3,3,0,0,0,2-.84,2.61,2.61,0,0,0,.93-2,3.57,3.57,0,0,0-2.32-.64,3,3,0,0,0-2,.58,1.71,1.71,0,0,0-.67,1.34,1.28,1.28,0,0,0,.61,1.13A2.44,2.44,0,0,0,127.86,32.43Z"/><path class="cls-1" d="M136.55,38.06h-1.89l2.26-4.9-4-9.1h2l2.9,7h0l2.81-7h2Z"/><path class="cls-1" d="M11,26.44q0-6.81,0-13.61a2,2,0,0,1,.51-1.48c.15-.16.26-.21.45,0Q16.5,16,21.09,20.66c2,2,4,4,5.94,6,.2.19.21.3,0,.5q-7.29,7.26-14.57,14.53a.51.51,0,0,1-.79.05A1.86,1.86,0,0,1,11,40.19c0-2.68,0-5.37,0-8v-5.7Z"/><path class="cls-1" d="M12.71,10.83a1.69,1.69,0,0,1,.88.25L32.23,21.51c.29.16.28.25.06.47-1.39,1.36-2.77,2.74-4.14,4.12-.15.15-.24.24-.44,0Q20.3,18.57,12.87,11A1.66,1.66,0,0,1,12.71,10.83Z"/><path class="cls-1" d="M14.1,41.6q6.76-6.83,13.52-13.67c.28-.29.41-.25.66,0,1.14,1.19,2.3,2.36,3.46,3.53.21.21.22.29,0,.44L14.33,41.43Z"/><path class="cls-1" d="M39.85,26.57a1.4,1.4,0,0,1-.62,1.13,7.64,7.64,0,0,1-.86.53l-5.25,2.9a.39.39,0,0,1-.57-.08q-1.87-1.92-3.76-3.82c-.19-.18-.19-.28,0-.47Q31,24.58,33.17,22.4a.35.35,0,0,1,.51-.08l5.2,2.92A1.59,1.59,0,0,1,39.85,26.57Z"/></g></g></svg>