<svg xmlns="http://www.w3.org/2000/svg" viewBox="0 0 50.46 50.46"><defs><style>.cls-1{fill:#fff;}</style></defs><title>contact-email-hover</title><g id="Layer_2" data-name="Layer 2"><g id="Layer_1-2" data-name="Layer 1"><path class="cls-1" d="M25.23,0A25.23,25.23,0,1,0,50.46,25.23,25.24,25.24,0,0,0,25.23,0ZM37.81,32.3a1.53,1.53,0,0,1-1.53,1.53H14.77a1.52,1.52,0,0,1-1.53-1.53v-11l11.35,7.21a1.45,1.45,0,0,0,.92.29,2,2,0,0,0,.93-.28l0,0a0,0,0,0,1,0,0l11.31-7.22ZM25.52,26.69,13.24,19a1.53,1.53,0,0,1,1.53-1.54H36.28A1.54,1.54,0,0,1,37.81,19Z"/></g></g></svg>