<svg xmlns="http://www.w3.org/2000/svg" viewBox="0 0 51.23 51.23"><defs><style>.twitter-1{fill:#fff;}.twitter-2{fill:none;stroke:#fff;stroke-miterlimit:10;stroke-width:0.77px;}</style></defs><title>contact-twitter</title><g id="Layer_2" data-name="Layer 2"><g id="Layer_1-2" data-name="Layer 1"><g id="twitter"><g id="twitter-icon"><path class="twitter-1" d="M38.42,18.73a9.17,9.17,0,0,1-2.77.76,4.79,4.79,0,0,0,2.12-2.67A9.3,9.3,0,0,1,34.71,18a4.82,4.82,0,0,0-8.21,4.4,13.7,13.7,0,0,1-9.95-5,4.83,4.83,0,0,0,1.5,6.44,4.78,4.78,0,0,1-2.19-.6A4.82,4.82,0,0,0,19.73,28a4.83,4.83,0,0,1-2.18.09,4.84,4.84,0,0,0,4.51,3.35,9.75,9.75,0,0,1-7.14,2A13.71,13.71,0,0,0,36,21.23,9.84,9.84,0,0,0,38.42,18.73Z"/></g></g><circle class="twitter-2" cx="25.61" cy="25.61" r="25.23"/></g></g></svg>