<svg xmlns="http://www.w3.org/2000/svg" viewBox="0 0 51.23 51.23"><defs><style>.contact-1{fill:#fff;}.contact-2{fill:none;stroke:#fff;stroke-miterlimit:10;stroke-width:0.77px;}</style></defs><title>contact-call</title><g id="Layer_2" data-name="Layer 2"><g id="Layer_1-2" data-name="Layer 1"><path class="contact-1" d="M16.86,33.9a4.64,4.64,0,0,0,1.48,1,4.36,4.36,0,0,0,1.18.3,5.46,5.46,0,0,0,.82.06c2.82,0,6-1.6,9-4.5s4.53-6.14,4.5-8.95a5.36,5.36,0,0,0-.06-.82,4.76,4.76,0,0,0-.3-1.18,4.48,4.48,0,0,0-1-1.48l-.95-1a1.64,1.64,0,0,0-1.09-.49,1.45,1.45,0,0,0-1.09.43L26.63,20a1.58,1.58,0,0,0,.06,2.18l1.8,1.8-.1.19A13.63,13.63,0,0,1,26,27.45a14.1,14.1,0,0,1-3.29,2.36l-.19.1-1.81-1.8A1.59,1.59,0,0,0,18.56,28l-2.72,2.72a1.48,1.48,0,0,0-.43,1.1,1.62,1.62,0,0,0,.49,1.08Z"/><circle class="contact-2" cx="25.61" cy="25.61" r="25.23"/></g></g></svg>