<svg xmlns="http://www.w3.org/2000/svg" viewBox="0 0 50.46 50.46"><defs><style>.cls-1{fill:#fff;}</style></defs><title>contact-call-hover</title><g id="Layer_2" data-name="Layer 2"><g id="Layer_1-2" data-name="Layer 1"><path class="cls-1" d="M25.23,0A25.23,25.23,0,1,0,50.46,25.23,25.24,25.24,0,0,0,25.23,0Zm3.68,30.33c-2.92,2.9-6.14,4.53-9,4.5a5.66,5.66,0,0,1-.82-.06,4.39,4.39,0,0,1-1.17-.3,4.64,4.64,0,0,1-1.48-.95l-1-1A1.62,1.62,0,0,1,15,31.48a1.48,1.48,0,0,1,.43-1.1l2.72-2.72a1.59,1.59,0,0,1,2.18.07l1.8,1.8.19-.11A12.46,12.46,0,0,0,28,23.77l.11-.19-1.8-1.8a1.59,1.59,0,0,1-.07-2.18L29,16.88a1.48,1.48,0,0,1,1.1-.43,1.7,1.7,0,0,1,1.09.48l1,1a4.64,4.64,0,0,1,.95,1.48,4.8,4.8,0,0,1,.3,1.17,5.55,5.55,0,0,1,.06.82C33.44,24.19,31.81,27.41,28.91,30.33Z"/></g></g></svg>