<svg xmlns="http://www.w3.org/2000/svg" viewBox="0 0 51.23 51.23"><defs><style>.email-1{fill:#fff;}.email-2{fill:none;stroke:#fff;stroke-miterlimit:10;stroke-width:0.77px;}</style></defs><title>contact-email</title><g id="Layer_2" data-name="Layer 2"><g id="Layer_1-2" data-name="Layer 1"><g id="Email"><circle class="email-2" cx="25.61" cy="25.61" r="25.23"/><path class="email-1" d="M36.66,34.21H15.16a1.53,1.53,0,0,1-1.54-1.53v-11L25,28.84a1.45,1.45,0,0,0,.92.29,2.08,2.08,0,0,0,1-.33l-.07.05,11.36-7.26V32.68A1.52,1.52,0,0,1,36.66,34.21Zm-23-14.84a1.54,1.54,0,0,1,1.54-1.54h21.5a1.53,1.53,0,0,1,1.53,1.54L25.9,27.07Z"/></g></g></g></svg>