<svg xmlns="http://www.w3.org/2000/svg" viewBox="0 0 260.78 257.2"><defs><style>.cls-1,.cls-8{fill:#31383b;}.cls-1{opacity:0.3;}.cls-18,.cls-2{fill:#818282;}.cls-13,.cls-16,.cls-19,.cls-2,.cls-20,.cls-3,.cls-6,.cls-7,.cls-9{stroke:#31383b;}.cls-11,.cls-13,.cls-15,.cls-16,.cls-19,.cls-2,.cls-20,.cls-3,.cls-5,.cls-6,.cls-7,.cls-9{stroke-miterlimit:10;}.cls-3,.cls-4{fill:#e4e4e4;}.cls-11,.cls-13,.cls-15,.cls-16,.cls-19,.cls-20,.cls-5{fill:none;}.cls-5{stroke:#b2b2b2;stroke-width:0.74px;}.cls-6{fill:#44b1ba;}.cls-7{fill:#fff;}.cls-9{fill:#f1f1f1;}.cls-10{fill:#4d4e4e;}.cls-11{stroke:#4d4e4e;stroke-width:2.22px;}.cls-12{fill:#1a1a1a;}.cls-13{stroke-width:1.81px;}.cls-14{fill:#b2b2b2;}.cls-15{stroke:#e4e4e4;}.cls-15,.cls-16{stroke-width:1.68px;}.cls-17{fill:#4abdb7;}.cls-19,.cls-20{stroke-linecap:round;}.cls-20{stroke-dasharray:1.97 1.97;}</style></defs><title>person</title><g id="Layer_2" data-name="Layer 2"><g id="Layer_1-2" data-name="Layer 1"><ellipse class="cls-1" cx="130.39" cy="243.47" rx="130.39" ry="13.73"/><rect class="cls-2" x="81.28" y="66.52" width="96.74" height="127.58" rx="13.32" ry="13.32"/><rect class="cls-3" x="23.43" y="155.63" width="212.55" height="88.84"/><rect class="cls-4" x="120.74" y="80.67" width="17.83" height="11.05"/><line class="cls-5" x1="129.27" y1="84.89" x2="129.27" y2="89.86"/><path class="cls-6" d="M193.47,130.8c-7.65-15.29-23.92-49.07-27-51.66S147.11,74,137.8,74c0,0,1.75,11.47-8.53,11.47S120.74,74,120.74,74c-9.32,0-25.58,2.59-28.67,5.18s-19.36,36.37-27,51.66,2.1,16.4,2.1,16.4H93.92V134.38a124.82,124.82,0,0,0-12.45-3c2.59-6.29,17.63-35,17.63-35l1.61,49.45h57.12l1.6-49.45s15,28.73,17.64,35a125.46,125.46,0,0,0-12.46,3V147.2h26.76S201.11,146.09,193.47,130.8Z"/><path class="cls-6" d="M191.37,147.2H164.61V134.38a125.46,125.46,0,0,1,12.46-3c-2.59-6.29-17.64-35-17.64-35l-1.6,49.44H100.7L99.1,96.4s-15,28.73-17.63,35a124.82,124.82,0,0,1,12.45,3V147.2H67.16s-9.74-1.11-2.09-16.4S89,81.72,92.07,79.13c1.91-1.6,8.83-3.2,16.05-4.18a97.46,97.46,0,0,1,12.62-1,13.74,13.74,0,0,0,1.14,7.53c1.16,2.16,3.34,3.94,7.39,3.94s6.27-1.81,7.41-4A13.68,13.68,0,0,0,137.8,74a97,97,0,0,1,12.27,1c7.34,1,14.46,2.61,16.39,4.23,3.09,2.59,19.36,36.38,27,51.67S191.37,147.2,191.37,147.2Z"/><path class="cls-7" d="M137.8,81.53s-1.21,4.36-8.53,4.36-8.53-4.36-8.53-4.36V60.86H137.8Z"/><path class="cls-1" d="M137.8,75.6a26.72,26.72,0,0,1-8.42,1.65,25.34,25.34,0,0,1-8.23-1.65V66.31H137.8Z"/><path class="cls-7" d="M129.27,27.81c-16.33-6.37-23.63,0-23.63,0s1.27,22.45,1.85,27c1.39,10.77,15.41,18,21.78,18s20.38-7.18,21.77-18c.59-4.54,1.86-27,1.86-27S145.6,21.44,129.27,27.81Z"/><path class="cls-7" d="M106.39,40.35s-4.15-4.11-5.61-1.65c-3.25,5.44,2.43,7.48,2.81,12.63.27,3.68,2.74,3.65,3.73,1.82S107.89,41.58,106.39,40.35Z"/><path class="cls-7" d="M152.14,40.35s4.15-4.11,5.62-1.65c3.25,5.44-2.43,7.48-2.81,12.63-.27,3.68-2.75,3.65-3.73,1.82S150.65,41.58,152.14,40.35Z"/><path class="cls-8" d="M140.91,29.41s9.34.37,11.31-1.29c0,0-2.08,16.73-1.18,19.23,0,0,0-6.81,3.32-8.72,0,0,5.78-19.3.79-24.39a31.65,31.65,0,0,0-18.13-9c-6-.65-12.67-1.85-15.81-5.27,0,0,1.57,4.35,3.7,4.62,0,0-14,2.5-22.94-.55,0,0,2.5,6.75,8.14,8,0,0-11.84,2.78-18.87.47,0,0,5.59,11.41,14.4,15.32,0,0,6.69-3,9.93-1.73,0,0,.64,1.85-2.22,3.05,0,0,7.86-.28,11.28-1.94a7.83,7.83,0,0,1,.09,2.5"/><path class="cls-8" d="M107.5,47.35s-.66-7.62-4.76-9.36c0,0-2.16-11.72-1-14.31l4.63,3.85s2.26,16.58,1.63,19.82Z"/><path class="cls-1" d="M138.57,91.72l-3.86-1.43a14.72,14.72,0,0,0-10.71.17l-4.33,1.76,1.46-5.73,5.28-.89,11.33.22,1.12,2.92Z"/><path class="cls-9" d="M129.27,85.89s-7.14,0-9.36,5c0,0-2.37-9.06.83-12.9C120.74,78,121.61,85.27,129.27,85.89Z"/><path class="cls-9" d="M129.27,85.89s7.14,0,9.36,5c0,0,2.36-9.06-.83-12.9C137.8,78,136.93,85.27,129.27,85.89Z"/><path class="cls-8" d="M151,48.85h-.88s1.12,16.42-20.87,16.42-20.87-16.42-20.87-16.42h-.89s-1.25,10.64,2.92,16.71c5.74,8.37,18.84,8.37,18.84,8.37s13.09,0,18.84-8.37C152.23,59.49,151,48.85,151,48.85Z"/><path class="cls-8" d="M117.25,68.68A15.78,15.78,0,0,1,121,61a13.36,13.36,0,0,1,3.62-2.86A10.56,10.56,0,0,1,129.33,57,10.75,10.75,0,0,1,134,58.25a13.56,13.56,0,0,1,3.57,2.84,16.21,16.21,0,0,1,3.87,7.59,51.5,51.5,0,0,0-6-5.26,16.45,16.45,0,0,0-3.11-1.75,9.07,9.07,0,0,0-3.13-.67,8.81,8.81,0,0,0-3.12.57,15.75,15.75,0,0,0-3.07,1.72A44.43,44.43,0,0,0,117.25,68.68Z"/><rect class="cls-10" x="41.34" y="146.87" width="3.25" height="3.25" rx="0.74" ry="0.74"/><path class="cls-11" d="M46.39,99.08S13.09,100,31,149.73"/><path class="cls-12" d="M51.36,150.51v-.44c0-.63-.33-1.13-.74-1.13H23.74c-.41,0-.74.5-.74,1.13v.44Z"/><path class="cls-12" d="M48.89,99.08a2.5,2.5,0,1,1-2.5-2.49A2.5,2.5,0,0,1,48.89,99.08Z"/><path class="cls-12" d="M47.24,98.5a16.46,16.46,0,0,0,0,23.28L70.52,98.5A16.46,16.46,0,0,0,47.24,98.5Z"/><path class="cls-3" d="M169.05,109.76c-.74-1.23-3.2-1.48-3.2-1.48H92.69s-2.47.25-3.21,1.48.74,40.44.74,40.44h78.09S169.79,111,169.05,109.76Z"/><path class="cls-13" d="M210.71,137.32s3.47-2.42,4.39,0-.58,6-2.19,6.7-4.85-.81-4.85-.81"/><path class="cls-14" d="M189.38,149.79a1.52,1.52,0,0,0,1.52,1.41h21.28a1.52,1.52,0,0,0,1.52-1.41Z"/><path class="cls-9" d="M191.79,134.67v5.25a9.75,9.75,0,0,0,19.5,0v-5.25Z"/><path class="cls-9" d="M191.79,134.67v5.25a9.75,9.75,0,0,0,19.5,0v-5.25Z"/><path class="cls-1" d="M211.29,135.92v4a9.75,9.75,0,0,1-19.5,0v-4a9.75,9.75,0,0,0,19.5,0Z"/><path class="cls-2" d="M250,153.13a3,3,0,0,1-3,3H12.33a3,3,0,0,1-3-3h0a3,3,0,0,1,3-2.95H247.08a3,3,0,0,1,3,2.95Z"/><path class="cls-15" d="M124.8,41s.57-2.1,4.47-2.1"/><path class="cls-15" d="M133.74,41s-.57-2.1-4.47-2.1"/><path class="cls-16" d="M107.13,37.28s-1.13,9.35,2.94,11.88,13.82,0,14.49-3.6a34.5,34.5,0,0,0,0-8.68"/><path class="cls-16" d="M151.41,37.28s1.13,9.35-2.94,11.88-13.82,0-14.49-3.6a34,34,0,0,1,0-8.68"/><rect class="cls-17" x="105.53" y="35.34" width="20.7" height="3.07" rx="1.35" ry="1.35"/><rect class="cls-17" x="132.31" y="35.34" width="20.7" height="3.07" rx="1.35" ry="1.35"/><rect class="cls-1" x="23.43" y="155.63" width="212.62" height="11.6"/><polygon class="cls-1" points="165.28 106.63 159.34 89.65 159.01 94.75 165.28 106.63"/><polygon class="cls-1" points="96.36 100.74 99.58 90.04 99.58 94.63 96.36 100.74"/><path class="cls-18" d="M143.8,202.11a9.18,9.18,0,0,1-2.5-6.79c.16-4.14-2.24-5.35-3.68-5.7a3.23,3.23,0,0,0-3.81,2.06l-1.2,2.68,0,.07h0l0,.11a.25.25,0,0,1,0-.07L129,202.41a2,2,0,0,0,0,1.57l1.75,4a.52.52,0,0,0,.48.31.57.57,0,0,0,.22,0,.53.53,0,0,0,.26-.7L130,203.55a.81.81,0,0,1,0-.71l3.58-8,0,0,0-.07h0l1.23-2.77a2.22,2.22,0,0,1,2.59-1.42c2,.48,3,2,2.88,4.62a10.15,10.15,0,0,0,2.8,7.57.46.46,0,0,1,0,.62,10.15,10.15,0,0,0-2.8,7.56,4.6,4.6,0,0,1-1.27,3.84,5.27,5.27,0,0,1-3.95.87.53.53,0,0,0-.2,1,8.29,8.29,0,0,0,1.16.09,5.67,5.67,0,0,0,3.67-1.2A5.57,5.57,0,0,0,141.3,211a9.16,9.16,0,0,1,2.5-6.79A1.5,1.5,0,0,0,143.8,202.11Zm-10.82-8H133l-.13,0Zm-.32.16.05,0a.12.12,0,0,0-.05.05Z"/><path class="cls-18" d="M137.08,204l-3.58,8-1.24,2.76a3.2,3.2,0,0,1-3,2.15,2.91,2.91,0,0,1-.77-.1c-1.45-.34-3.84-1.54-3.67-5.69a9.14,9.14,0,0,0-2.51-6.79,1.48,1.48,0,0,1,0-2.07,9.22,9.22,0,0,0,2.51-6.8,5.55,5.55,0,0,1,1.63-4.68,6.32,6.32,0,0,1,4.83-1.11.53.53,0,0,1,.42.62.52.52,0,0,1-.62.41,5.35,5.35,0,0,0-3.95.88,4.6,4.6,0,0,0-1.27,3.84,10.15,10.15,0,0,1-2.8,7.56.46.46,0,0,0,0,.62,10.15,10.15,0,0,1,2.8,7.57c-.1,2.58.86,4.14,2.87,4.62a2.19,2.19,0,0,0,2.6-1.42l1.26-2.8,3.56-8a.83.83,0,0,0,0-.72l-1.65-3.7a.54.54,0,0,1,.27-.7.53.53,0,0,1,.7.27l1.64,3.7A1.93,1.93,0,0,1,137.08,204Z"/><line class="cls-19" x1="201.48" y1="129.87" x2="202.19" y2="129.16"/><path class="cls-20" d="M203.58,127.77l2.28-2.28a11.58,11.58,0,0,0,0-16.37h0a11.56,11.56,0,0,1-.79-15.49"/><path class="cls-19" d="M205.72,92.89l.14-.13.57-.58"/></g></g></svg>