<svg xmlns="http://www.w3.org/2000/svg" viewBox="0 0 147.84 49.52"><defs><style>.cls-1{fill:#fff;}</style></defs><title>google-play-active</title><g id="Layer_2" data-name="Layer 2"><g id="Layer_1-2" data-name="Layer 1"><path class="cls-1" d="M80,11a2.53,2.53,0,0,0-.46,0q0,.58,0,1.32h.18c.75,0,1.12-.23,1.12-.71S80.61,11,80,11Z"/><path class="cls-1" d="M47.19,11h0a16.7,16.7,0,0,1-.55,1.71h1.12A16.46,16.46,0,0,1,47.19,11Z"/><path class="cls-1" d="M55,13.82a1.81,1.81,0,0,0,.4,0,1.17,1.17,0,0,0,1-.41,1.59,1.59,0,0,0,.31-1,1.47,1.47,0,0,0-.34-1,1.31,1.31,0,0,0-1.05-.41l-.36,0c0,.41,0,.84,0,1.28S55,13.34,55,13.82Z"/><path class="cls-1" d="M89.41,11a.92.92,0,0,0-.76.41,1.57,1.57,0,0,0-.32,1,1.58,1.58,0,0,0,.33,1,1,1,0,0,0,.81.4.93.93,0,0,0,.76-.4,1.61,1.61,0,0,0,.31-1,1.58,1.58,0,0,0-.32-1A1,1,0,0,0,89.41,11Z"/><path class="cls-1" d="M86.24,25.41a2.9,2.9,0,0,0-2.18,1,3.54,3.54,0,0,0-.91,2.55,3.54,3.54,0,0,0,.91,2.55,3,3,0,0,0,4.37,0,3.59,3.59,0,0,0,.9-2.56,3.59,3.59,0,0,0-.9-2.56A2.92,2.92,0,0,0,86.24,25.41Z"/><path class="cls-1" d="M60.48,11.63c0-.41-.26-.61-.78-.61a3.52,3.52,0,0,0-.51,0c0,.32,0,.73,0,1.24h.29C60.16,12.31,60.48,12.08,60.48,11.63Z"/><path class="cls-1" d="M83.46,12.38c.75,0,1.12-.23,1.12-.71s-.29-.65-.87-.65a2.53,2.53,0,0,0-.46,0q0,.58,0,1.32Z"/><path class="cls-1" d="M75.71,25.41a3,3,0,0,0-2.23,1,3.47,3.47,0,0,0-.94,2.55,3.47,3.47,0,0,0,.94,2.55,3.07,3.07,0,0,0,4.46,0,3.47,3.47,0,0,0,.94-2.55,3.47,3.47,0,0,0-.94-2.55A3,3,0,0,0,75.71,25.41Z"/><path class="cls-1" d="M76.17,11h0q0,.12-.54,1.71H76.7C76.35,11.67,76.17,11.09,76.17,11Z"/><path class="cls-1" d="M65.1,25.41a3,3,0,0,0-2.23,1,3.47,3.47,0,0,0-.94,2.55,3.47,3.47,0,0,0,.94,2.55,3.07,3.07,0,0,0,4.46,0,3.47,3.47,0,0,0,.94-2.55,3.47,3.47,0,0,0-.94-2.55A3,3,0,0,0,65.1,25.41Z"/><path class="cls-1" d="M69.68,13.82a1.87,1.87,0,0,0,.4,0,1.17,1.17,0,0,0,1-.41,1.6,1.6,0,0,0,.32-1,1.48,1.48,0,0,0-.35-1,1.31,1.31,0,0,0-1-.41l-.36,0c0,.41,0,.84,0,1.28S69.66,13.34,69.68,13.82Z"/><path class="cls-1" d="M115.45,21.33h-3v5h3a2.34,2.34,0,0,0,1.84-.77,2.43,2.43,0,0,0,0-3.41A2.34,2.34,0,0,0,115.45,21.33Z"/><path class="cls-1" d="M126.51,29.53a1.74,1.74,0,0,0-.67,1.35,1.28,1.28,0,0,0,.61,1.13,2.44,2.44,0,0,0,1.41.42,3,3,0,0,0,2-.84,2.61,2.61,0,0,0,.93-2,3.63,3.63,0,0,0-2.32-.63A3.05,3.05,0,0,0,126.51,29.53Z"/><path class="cls-1" d="M140.51,0H7.32A7.33,7.33,0,0,0,0,7.32V42.2a7.33,7.33,0,0,0,7.32,7.32H140.51a7.33,7.33,0,0,0,7.33-7.32V7.32A7.33,7.33,0,0,0,140.51,0Zm-58,10.46H84a1.79,1.79,0,0,1,1,.26.9.9,0,0,1,.4.81,1.2,1.2,0,0,1-.54,1.08,2.45,2.45,0,0,1-1.34.35h-.2c0,.39,0,.89,0,1.52h-.86c0-.59,0-1.28,0-2.09S82.49,11,82.46,10.46Zm-7.52,2a15.68,15.68,0,0,0,.72-2h1.16a15.47,15.47,0,0,0,.65,2,17.16,17.16,0,0,1,.64,2h-1a6.24,6.24,0,0,0-.28-1.14H75.44a5.47,5.47,0,0,0-.29,1.14h-.93C74.22,14.37,74.46,13.72,74.94,12.49Zm-6.1-2h1.27a2.08,2.08,0,0,1,1.61.55,1.92,1.92,0,0,1,.49,1.33,2.26,2.26,0,0,1-.55,1.52,2,2,0,0,1-1.57.65c-.3,0-.72,0-1.25,0,0-.61,0-1.31,0-2.09S68.87,11,68.84,10.46Zm-1.94,0h.87c0,.51,0,1.15,0,1.9s0,1.47,0,2.09H66.9c0-.63,0-1.33,0-2.09S66.92,11,66.9,10.46ZM62.7,11a1.95,1.95,0,0,1,2.79-.06A2,2,0,0,1,66,12.38,2.21,2.21,0,0,1,65.45,14a1.86,1.86,0,0,1-1.42.61A1.81,1.81,0,0,1,62.67,14a2,2,0,0,1-.54-1.45A2.21,2.21,0,0,1,62.7,11Zm-8.54-.53h1.27A2,2,0,0,1,57,11a1.88,1.88,0,0,1,.5,1.33A2.22,2.22,0,0,1,57,13.84a2,2,0,0,1-1.56.65c-.3,0-.72,0-1.25,0,0-.61,0-1.31,0-2.09S54.18,11,54.16,10.46Zm-4.37,0h.91a6.13,6.13,0,0,0,.76,1.3,7.7,7.7,0,0,1,.93,1.63h0a11.09,11.09,0,0,1-.07-1.22c0-.56,0-1.13,0-1.71h.76c0,.51,0,1.14,0,1.9s0,1.47,0,2.09h-.75a7.46,7.46,0,0,0-.85-1.32,7.23,7.23,0,0,1-1-1.74h0a11.09,11.09,0,0,1,.07,1.22c0,.5,0,1.12,0,1.84h-.76c0-.63.05-1.33.05-2.09S49.82,11,49.79,10.46Zm-3.84,2a15.68,15.68,0,0,0,.72-2h1.16a17.62,17.62,0,0,0,.65,2,18.67,18.67,0,0,1,.65,2h-1a7.34,7.34,0,0,0-.28-1.14H46.45a6.28,6.28,0,0,0-.29,1.14h-.92C45.24,14.37,45.48,13.72,46,12.49ZM13.59,11.08,32.23,21.51c.29.16.28.25.06.47-1.39,1.36-2.77,2.74-4.14,4.12-.15.15-.24.24-.44,0Q20.3,18.57,12.87,11s-.08-.09-.16-.2A1.69,1.69,0,0,1,13.59,11.08ZM11.68,41.77A1.85,1.85,0,0,1,11,40.19c0-2.68,0-5.37,0-8v-5.7h0q0-6.81,0-13.61a2,2,0,0,1,.51-1.48c.15-.16.26-.21.45,0Q16.5,16,21.09,20.66c2,2,4,4,5.95,6,.19.19.2.3,0,.5q-7.29,7.26-14.57,14.53A.51.51,0,0,1,11.68,41.77Zm20-9.86L14.33,41.43l-.23.17q6.76-6.83,13.52-13.67c.28-.29.41-.25.66,0,1.14,1.19,2.3,2.36,3.46,3.53C32,31.68,32,31.76,31.69,31.91Zm7.54-4.21a7.64,7.64,0,0,1-.86.53l-5.25,2.9a.39.39,0,0,1-.57-.08q-1.87-1.92-3.76-3.82c-.19-.18-.19-.29,0-.47Q31,24.58,33.17,22.4a.35.35,0,0,1,.51-.08l5.2,2.92a1.59,1.59,0,0,1,1,1.32A1.42,1.42,0,0,1,39.23,27.7ZM57.59,32a6.87,6.87,0,0,1-5.22,2.11A7.32,7.32,0,0,1,45,26.68a7.32,7.32,0,0,1,7.37-7.42,7.3,7.3,0,0,1,2.92.6,5.85,5.85,0,0,1,2.22,1.58l-1.25,1.25A4.81,4.81,0,0,0,52.37,21a5.48,5.48,0,0,0-5.51,5.67,5.58,5.58,0,0,0,9.48,4.08,4.48,4.48,0,0,0,1.19-2.87H52.37V26.18h6.88a5.76,5.76,0,0,1,.1,1.07A6.41,6.41,0,0,1,57.59,32Zm1.63-19.13q0,.8,0,1.59H58.4c0-.61,0-1.31,0-2.09s0-1.37,0-1.9h1.46c.94,0,1.4.32,1.4,1a1.08,1.08,0,0,1-.8,1.07v0A.88.88,0,0,1,61,13a9.54,9.54,0,0,1,.63,1.45h-.91a5.69,5.69,0,0,0-.54-1.34.72.72,0,0,0-.62-.25Zm9.47,19.76a5.09,5.09,0,0,1-7.18,0,5.16,5.16,0,0,1-1.41-3.7,5.16,5.16,0,0,1,1.41-3.7,5.12,5.12,0,0,1,7.18,0,5.16,5.16,0,0,1,1.41,3.7A5.16,5.16,0,0,1,68.69,32.62Zm10.61,0a5.09,5.09,0,0,1-7.18,0,5.16,5.16,0,0,1-1.41-3.7,5.16,5.16,0,0,1,1.41-3.7,5.12,5.12,0,0,1,7.18,0,5.16,5.16,0,0,1,1.41,3.7A5.16,5.16,0,0,1,79.3,32.62Zm.51-19.68h-.2c0,.39,0,.89,0,1.52h-.86c0-.59,0-1.28,0-2.09s0-1.37,0-1.9h1.53a1.79,1.79,0,0,1,1,.26.9.9,0,0,1,.4.81,1.2,1.2,0,0,1-.54,1.08A2.45,2.45,0,0,1,79.81,12.94ZM91.08,33.28a4.83,4.83,0,0,1-1.45,3.8,5.07,5.07,0,0,1-3.53,1.3,4.4,4.4,0,0,1-2.81-.86,5.13,5.13,0,0,1-1.57-2l1.67-.69a2.69,2.69,0,0,0,1,1.33,2.79,2.79,0,0,0,1.69.53,3.11,3.11,0,0,0,2.37-.9,3.38,3.38,0,0,0,.86-2.45v-.93h-.08a3.63,3.63,0,0,1-1.34,1.19,4,4,0,0,1-2,.48,4.28,4.28,0,0,1-3.25-1.49,5.25,5.25,0,0,1-1.37-3.69,5.25,5.25,0,0,1,1.37-3.69,4.27,4.27,0,0,1,3.25-1.48,4,4,0,0,1,2,.47,3.63,3.63,0,0,1,1.34,1.19h.08V24.06h1.75ZM90.81,14a1.86,1.86,0,0,1-1.42.61A1.81,1.81,0,0,1,88,14a2,2,0,0,1-.54-1.45A2.21,2.21,0,0,1,88.06,11a1.95,1.95,0,0,1,2.79-.06,2,2,0,0,1,.54,1.45A2.21,2.21,0,0,1,90.81,14Zm3.82,19.83H92.8V19.58h1.83Zm.92-19.33h-.76A7.72,7.72,0,0,0,94,13.13a7.4,7.4,0,0,1-1-1.74h0A11.29,11.29,0,0,1,93,12.61c0,.5,0,1.12,0,1.84h-.75c0-.63,0-1.33,0-2.09s0-1.38,0-1.9h.91a5.65,5.65,0,0,0,.76,1.3,7.49,7.49,0,0,1,.92,1.63h.05a11.09,11.09,0,0,1-.07-1.22c0-.56,0-1.13,0-1.71h.77c0,.51,0,1.14,0,1.9S95.52,13.83,95.55,14.45Zm9.65,14.81H97.52a3.33,3.33,0,0,0,1,2.32,3,3,0,0,0,2.12.85,2.62,2.62,0,0,0,2.65-1.67l1.63.68a4.38,4.38,0,0,1-1.57,1.89,4.53,4.53,0,0,1-2.67.77,4.67,4.67,0,0,1-3.58-1.47,5.21,5.21,0,0,1-1.38-3.71A5.33,5.33,0,0,1,97,25.27a4.33,4.33,0,0,1,3.42-1.52,4.48,4.48,0,0,1,3.46,1.4,5.38,5.38,0,0,1,1.3,3.77Zm13.33-2.43a4.48,4.48,0,0,1-3.12,1.2h-3v5.75h-1.83V19.58h4.84a4.48,4.48,0,0,1,3.12,1.2,4.13,4.13,0,0,1,0,6Zm4.33,7H121V19.58h1.82Zm9.72,0h-1.74V32.43h-.08a3.59,3.59,0,0,1-3.2,1.67,3.79,3.79,0,0,1-2.58-.9,3.14,3.14,0,0,1,.18-4.84,5,5,0,0,1,3-.91,5.21,5.21,0,0,1,2.64.6v-.28a2.15,2.15,0,0,0-.74-1.71,2.64,2.64,0,0,0-1.8-.65,2.82,2.82,0,0,0-1.44.38,1.92,1.92,0,0,0-.88,1l-1.67-.72a3.79,3.79,0,0,1,1.33-1.61,4.22,4.22,0,0,1,2.62-.74,4.47,4.47,0,0,1,3.09,1.09,3.88,3.88,0,0,1,1.23,3.07Zm4,4.28h-1.89l2.26-4.9-4-9.1h2l2.9,7h0l2.81-7h2Z"/><path class="cls-1" d="M64.11,13.89a.93.93,0,0,0,.76-.4,1.61,1.61,0,0,0,.31-1,1.58,1.58,0,0,0-.32-1,1,1,0,0,0-.81-.4.92.92,0,0,0-.76.41,1.57,1.57,0,0,0-.32,1,1.58,1.58,0,0,0,.33,1A1,1,0,0,0,64.11,13.89Z"/><path class="cls-1" d="M100.42,25.41a2.6,2.6,0,0,0-1.76.64,3.3,3.3,0,0,0-1,1.7h5.63a2.62,2.62,0,0,0-.76-1.59A2.74,2.74,0,0,0,100.42,25.41Z"/></g></g></svg>