<svg xmlns="http://www.w3.org/2000/svg" viewBox="0 0 139.37 49.57"><defs><style>.cls-1{fill:#fff;}</style></defs><title>appstore</title><g id="Layer_2" data-name="Layer 2"><g id="Layer_1-2" data-name="Layer 1"><path class="cls-1" d="M19,13h2.61a.31.31,0,1,0,0-.61H19A.31.31,0,1,0,19,13Zm1.3,22.84a1.36,1.36,0,1,0,1.36,1.36A1.36,1.36,0,0,0,20.3,35.79Zm-6.65-1.16H27V15H13.65ZM56.3,28.17a2.67,2.67,0,0,0-1.72.63,2.94,2.94,0,0,0-1,1.65,3.3,3.3,0,0,0-.12.78v1.92a3.06,3.06,0,0,0,.77,2.12,2.57,2.57,0,0,0,2,.86A2.63,2.63,0,0,0,58.48,35a4.9,4.9,0,0,0,.8-2.94,4.79,4.79,0,0,0-.75-2.77A2.66,2.66,0,0,0,56.3,28.17ZM102.94,28a2.58,2.58,0,0,0-2.34,1.37,5.19,5.19,0,0,0-.69,2.76,5.08,5.08,0,0,0,.69,2.71,2.61,2.61,0,0,0,4.61,0,5.62,5.62,0,0,0,0-5.45A2.54,2.54,0,0,0,102.94,28Zm-34,.16a2.62,2.62,0,0,0-1.71.63,3,3,0,0,0-1,1.65,3.3,3.3,0,0,0-.12.78v1.92a3.11,3.11,0,0,0,.77,2.12,2.57,2.57,0,0,0,2,.86A2.6,2.6,0,0,0,71.12,35a4.9,4.9,0,0,0,.81-2.94,4.72,4.72,0,0,0-.76-2.77A2.64,2.64,0,0,0,68.94,28.17ZM42.52,24.05h0c-.17.68-.41,1.68-.76,3l-1.33,4.17h4.28l-1.34-4.17C43.18,26.63,42.91,25.63,42.52,24.05Zm79.81,3.84a2.44,2.44,0,0,0-2,1,3.8,3.8,0,0,0-.76,2h5.33a3.53,3.53,0,0,0-.5-2A2.25,2.25,0,0,0,122.33,27.89ZM53.8,16.53a1.23,1.23,0,0,0,0-.33v-.81c-1.06,0-2.07.2-2.07,1.1a.79.79,0,0,0,.86.86A1.24,1.24,0,0,0,53.8,16.53Zm-14-3.72c-.15-.5-.29-1.06-.41-1.54h0c-.12.48-.25,1.05-.38,1.54l-.64,2h2.11Zm84.86-.59c1.92,0,2.55,1.58,2.55,2.89a3.1,3.1,0,0,1,0,.63h-4a1.61,1.61,0,0,0,1.83,1.53A5,5,0,0,0,126.7,17l.22,1a5.27,5.27,0,0,1-2.07.38,2.8,2.8,0,0,1-3-3A2.94,2.94,0,0,1,124.7,12.22Zm-23.76.14.07.89h0a2.16,2.16,0,0,1,1.9-1c1,0,2.11.67,2.11,2.55v3.51h-1.5V14.94c0-.85-.32-1.5-1.13-1.5a1.26,1.26,0,0,0-1.17.88,1.32,1.32,0,0,0-.08.47v3.49H99.69V14.12c0-.68,0-1.25,0-1.76Zm-15.72-.14c1.92,0,2.56,1.58,2.56,2.89a4.06,4.06,0,0,1,0,.63h-4a1.61,1.61,0,0,0,1.83,1.53A5,5,0,0,0,87.23,17l.22,1a5.31,5.31,0,0,1-2.07.38,2.8,2.8,0,0,1-3-3A2.93,2.93,0,0,1,85.22,12.22ZM79.09,9.64h1.49v8.64H79.09ZM67.22,13.28a3.1,3.1,0,0,0-1.6.44l-.29-1a4.23,4.23,0,0,1,2.14-.53,2.23,2.23,0,0,1,2.45,2.51v2.13A8.25,8.25,0,0,0,70,18.28H68.66l-.11-.65h0a2.2,2.2,0,0,1-1.76.79,1.76,1.76,0,0,1-1.86-1.77c0-1.48,1.33-2.25,3.52-2.24v-.09C68.42,13.93,68.26,13.28,67.22,13.28ZM58.36,9.89a.81.81,0,1,1-.84.81A.8.8,0,0,1,58.36,9.89Zm.75,2.47v5.92h-1.5V12.36ZM38.52,10.08h1.91l2.66,8.2H41.47L40.73,16H38.14l-.71,2.32H35.89Zm-10,27.2a2.62,2.62,0,0,1-2.62,2.62H14.68a2.62,2.62,0,0,1-2.62-2.62v-25a2.63,2.63,0,0,1,2.62-2.62H25.93a2.63,2.63,0,0,1,2.62,2.62Zm18.07.6L45.13,33.2H39.94l-1.42,4.68H35.87l5.13-16h3.18l5.16,16Zm.58-19.6H45.73l-2.21-5.92h1.62l1,3c.17.53.29,1,.4,1.49h0c.11-.49.24-1,.4-1.49l1-3h1.57Zm3.08-1.63c0-1.48,1.33-2.25,3.52-2.24v-.09c0-.39-.16-1-1.21-1a3.09,3.09,0,0,0-1.59.44l-.29-1a4.2,4.2,0,0,1,2.14-.53,2.22,2.22,0,0,1,2.44,2.51v2.13a8.14,8.14,0,0,0,.1,1.42H54l-.11-.65h0a2.16,2.16,0,0,1-1.75.79A1.76,1.76,0,0,1,50.28,16.65Zm10,20a4.66,4.66,0,0,1-3.54,1.51,3.54,3.54,0,0,1-3.29-1.64v6H50.91V30.16c0-1.24,0-2.49-.1-3.79h2.25l.14,1.83h0a4.56,4.56,0,0,1,7.29-.45A6.38,6.38,0,0,1,61.89,32,6.49,6.49,0,0,1,60.29,36.63ZM63,18.28H61.46V9.64H63Zm10,18.35a4.66,4.66,0,0,1-3.54,1.51A3.54,3.54,0,0,1,66.1,36.5v6H63.55V30.16c0-1.24,0-2.49-.1-3.79H65.7l.14,1.83h0a4.55,4.55,0,0,1,7.28-.45A6.33,6.33,0,0,1,74.53,32,6.49,6.49,0,0,1,72.93,36.63Zm1.76-18.21a2,2,0,0,1-1.87-1h0l-.07.88H71.44c0-.4,0-1.05,0-1.66v-7H73v3.53h0a2.14,2.14,0,0,1,1.9-.95c1.45,0,2.48,1.21,2.47,3C77.38,17.36,76,18.42,74.69,18.42Zm12.87,18.3a6.3,6.3,0,0,1-4.35,1.39,7.6,7.6,0,0,1-4.13-1L79.67,35a7.14,7.14,0,0,0,3.69,1,3.5,3.5,0,0,0,2.25-.65,2.13,2.13,0,0,0,.8-1.75A2.24,2.24,0,0,0,85.75,32a6.16,6.16,0,0,0-2.2-1.23q-4.18-1.56-4.19-4.57a4,4,0,0,1,1.48-3.22,5.89,5.89,0,0,1,3.92-1.25,7.8,7.8,0,0,1,3.62.75l-.64,2.09a6.3,6.3,0,0,0-3.06-.74,3.18,3.18,0,0,0-2.12.66,1.91,1.91,0,0,0-.64,1.45,2,2,0,0,0,.73,1.57A8.59,8.59,0,0,0,85,28.69a7.75,7.75,0,0,1,3,1.95,4.08,4.08,0,0,1,1,2.76A4.28,4.28,0,0,1,87.56,36.72Zm9-8.43H93.75v5.59q0,2.13,1.5,2.13a4.44,4.44,0,0,0,1.13-.12l.08,1.94a5.77,5.77,0,0,1-2,.29,3.06,3.06,0,0,1-2.37-.93,4.49,4.49,0,0,1-.85-3.1v-5.8H89.57V26.37h1.68v-2.1l2.5-.76v2.86h2.83Zm-1.45-9.87a2.87,2.87,0,0,1-3-3.06,2.93,2.93,0,0,1,3.07-3.14,2.85,2.85,0,0,1,3,3A2.94,2.94,0,0,1,95.13,18.42Zm11.94,18a5.43,5.43,0,0,1-4.22,1.75,5.15,5.15,0,0,1-4-1.68,6.14,6.14,0,0,1-1.5-4.24,6.24,6.24,0,0,1,1.55-4.38,5.33,5.33,0,0,1,4.17-1.7,5.25,5.25,0,0,1,4.08,1.68A6.05,6.05,0,0,1,108.58,32,6.3,6.3,0,0,1,107.07,36.39Zm2.64-24h.84V11.25l1.47-.42v1.53h1.42v1.12H112v2.61c0,.73.2,1.1.77,1.1a1.87,1.87,0,0,0,.58-.06l0,1.13a3.44,3.44,0,0,1-1.09.16,1.69,1.69,0,0,1-1.29-.49,2.33,2.33,0,0,1-.47-1.67V13.48h-.84Zm6.56,16.26a5.1,5.1,0,0,0-.8-.06,2.44,2.44,0,0,0-2.09,1,3.85,3.85,0,0,0-.64,2.27v6h-2.55V30c0-1.32,0-2.52-.07-3.62h2.22l.1,2.21h.07a3.83,3.83,0,0,1,1.28-1.82,3,3,0,0,1,1.85-.62,3.93,3.93,0,0,1,.63.05Zm.39-13.89v3.55h-1.5V9.64h1.5v3.52h0a2,2,0,0,1,.75-.67,2.08,2.08,0,0,1,1-.27c1,0,2.07.67,2.07,2.57v3.49H119V15c0-.85-.31-1.51-1.14-1.51a1.25,1.25,0,0,0-1.17.84A1.29,1.29,0,0,0,116.66,14.73Zm10.55,18h-7.67a3.32,3.32,0,0,0,1.12,2.6,3.81,3.81,0,0,0,2.5.8,8.31,8.31,0,0,0,3.1-.55l.41,1.78a9.53,9.53,0,0,1-3.86.71,5.57,5.57,0,0,1-4.2-1.57,5.8,5.8,0,0,1-1.53-4.22A6.61,6.61,0,0,1,118.5,28a4.92,4.92,0,0,1,4-1.85A4.28,4.28,0,0,1,126.29,28a6.21,6.21,0,0,1,1,3.63A6.34,6.34,0,0,1,127.21,32.75ZM74.36,13.39A1.38,1.38,0,0,0,73,14.49a1.48,1.48,0,0,0-.05.39v1a2,2,0,0,0,0,.35,1.37,1.37,0,0,0,1.33,1c.94,0,1.51-.75,1.51-1.95C75.86,14.24,75.36,13.39,74.36,13.39Zm10.78-.14a1.46,1.46,0,0,0-1.38,1.44h2.61A1.28,1.28,0,0,0,85.14,13.25Zm10,.06c-1.06,0-1.48,1-1.48,2s.57,2,1.47,2,1.45-.82,1.45-2C96.63,14.38,96.22,13.31,95.19,13.31Zm-28.8,3.18a.79.79,0,0,0,.85.86,1.23,1.23,0,0,0,1.18-.82.93.93,0,0,0,0-.33v-.81C67.4,15.38,66.39,15.59,66.39,16.49Zm58.22-3.24a1.48,1.48,0,0,0-1.38,1.44h2.61A1.27,1.27,0,0,0,124.61,13.25Z"/><path class="cls-1" d="M132.69,49.57H6.68A6.69,6.69,0,0,1,0,42.89V6.68A6.69,6.69,0,0,1,6.68,0h126a6.69,6.69,0,0,1,6.68,6.68V42.89A6.69,6.69,0,0,1,132.69,49.57ZM6.68,1.73A5,5,0,0,0,1.73,6.68V42.89a5,5,0,0,0,4.95,5h126a5,5,0,0,0,4.95-5V6.68a5,5,0,0,0-4.95-4.95Z"/></g></g></svg>