<svg xmlns="http://www.w3.org/2000/svg" viewBox="0 0 139.37 49.57"><defs><style>.cls-1{fill:#fff;}</style></defs><title>appstore-active</title><g id="Layer_2" data-name="Layer 2"><g id="Layer_1-2" data-name="Layer 1"><path class="cls-1" d="M56.3,28.17a2.62,2.62,0,0,0-1.71.63,2.9,2.9,0,0,0-1,1.65,3.37,3.37,0,0,0-.12.78v1.92a3.09,3.09,0,0,0,.77,2.12,2.57,2.57,0,0,0,2,.86A2.62,2.62,0,0,0,58.48,35a4.88,4.88,0,0,0,.81-2.94,4.72,4.72,0,0,0-.76-2.77A2.64,2.64,0,0,0,56.3,28.17Z"/><path class="cls-1" d="M39.85,12.81c-.16-.5-.29-1.06-.42-1.53h0c-.12.47-.26,1-.39,1.53l-.63,2h2.1Z"/><path class="cls-1" d="M69,28.17a2.65,2.65,0,0,0-1.72.63,3,3,0,0,0-1,1.65,3.89,3.89,0,0,0-.11.78v1.92a3,3,0,0,0,.77,2.12,2.56,2.56,0,0,0,2,.86A2.63,2.63,0,0,0,71.13,35a4.88,4.88,0,0,0,.8-2.94,4.79,4.79,0,0,0-.75-2.77A2.66,2.66,0,0,0,69,28.17Z"/><path class="cls-1" d="M74.37,13.39A1.4,1.4,0,0,0,73,14.49a1.48,1.48,0,0,0-.05.39v1a1.34,1.34,0,0,0,0,.35,1.36,1.36,0,0,0,1.32,1c.94,0,1.51-.74,1.51-1.95C75.86,14.25,75.36,13.39,74.37,13.39Z"/><path class="cls-1" d="M19,13h2.61a.31.31,0,1,0,0-.61H19A.31.31,0,0,0,19,13Z"/><path class="cls-1" d="M42.52,24.06h0c-.16.67-.41,1.68-.76,3l-1.33,4.17h4.29l-1.35-4.17C43.19,26.64,42.92,25.63,42.52,24.06Z"/><path class="cls-1" d="M20.31,35.79a1.36,1.36,0,1,0,1.35,1.36A1.36,1.36,0,0,0,20.31,35.79Z"/><path class="cls-1" d="M66.39,16.5a.79.79,0,0,0,.85.85,1.22,1.22,0,0,0,1.18-.82.93.93,0,0,0,0-.33v-.81C67.4,15.38,66.39,15.6,66.39,16.5Z"/><path class="cls-1" d="M53.8,16.53a.93.93,0,0,0,0-.33v-.81c-1.06,0-2.07.21-2.07,1.11a.79.79,0,0,0,.85.85A1.23,1.23,0,0,0,53.8,16.53Z"/><rect class="cls-1" x="13.66" y="14.96" width="13.3" height="19.67"/><path class="cls-1" d="M124.61,13.25a1.46,1.46,0,0,0-1.37,1.45h2.6A1.27,1.27,0,0,0,124.61,13.25Z"/><path class="cls-1" d="M122.34,27.89a2.46,2.46,0,0,0-2,1.05,3.85,3.85,0,0,0-.76,2h5.33a3.47,3.47,0,0,0-.49-2A2.26,2.26,0,0,0,122.34,27.89Z"/><path class="cls-1" d="M95.2,13.31c-1.06,0-1.49,1-1.49,2s.58,2,1.48,2,1.44-.83,1.44-2C96.63,14.38,96.22,13.31,95.2,13.31Z"/><path class="cls-1" d="M132.69,0H6.69A6.69,6.69,0,0,0,0,6.68V42.89a6.69,6.69,0,0,0,6.69,6.68h126a6.69,6.69,0,0,0,6.68-6.68V6.68A6.69,6.69,0,0,0,132.69,0Zm-8,12.22c1.92,0,2.56,1.59,2.56,2.89a4.06,4.06,0,0,1-.05.63h-4a1.61,1.61,0,0,0,1.82,1.54,4.73,4.73,0,0,0,1.65-.27l.22,1a5.31,5.31,0,0,1-2.07.38,2.81,2.81,0,0,1-3.06-3A2.94,2.94,0,0,1,124.7,12.22ZM101,12.36l.07.89h0a2.15,2.15,0,0,1,1.89-1c1,0,2.11.67,2.11,2.55v3.52h-1.5V14.94c0-.85-.31-1.5-1.13-1.5a1.26,1.26,0,0,0-1.17.88,1.33,1.33,0,0,0-.07.47v3.5h-1.5V14.12c0-.68,0-1.25,0-1.76Zm-15.72-.14c1.92,0,2.55,1.59,2.55,2.89a3.1,3.1,0,0,1,0,.63h-4a1.6,1.6,0,0,0,1.82,1.54A4.71,4.71,0,0,0,87.23,17l.22,1a5.27,5.27,0,0,1-2.07.38,2.8,2.8,0,0,1-3-3A2.94,2.94,0,0,1,85.23,12.22ZM79.09,9.64h1.5v8.65h-1.5ZM67.22,13.28a3.16,3.16,0,0,0-1.59.44l-.3-1a4.26,4.26,0,0,1,2.14-.53,2.23,2.23,0,0,1,2.45,2.51v2.13a8.34,8.34,0,0,0,.1,1.43H68.67l-.11-.66h0a2.16,2.16,0,0,1-1.75.79,1.76,1.76,0,0,1-1.86-1.77c0-1.48,1.32-2.25,3.51-2.23v-.1C68.42,13.93,68.27,13.28,67.22,13.28ZM58.37,9.89a.8.8,0,0,1,.84.81.84.84,0,0,1-1.68,0A.8.8,0,0,1,58.37,9.89Zm.74,2.47v5.93h-1.5V12.36ZM38.52,10.08h1.91l2.67,8.21H41.48L40.74,16h-2.6l-.7,2.33H35.89Zm-10,27.2a2.62,2.62,0,0,1-2.62,2.62H14.69a2.62,2.62,0,0,1-2.63-2.62v-25a2.63,2.63,0,0,1,2.63-2.62H25.93a2.63,2.63,0,0,1,2.62,2.62Zm18.07.6L45.13,33.2H39.94l-1.42,4.68H35.87l5.14-16h3.17l5.17,16Zm.58-19.59H45.73l-2.2-5.93h1.62l1,3c.17.53.29,1,.4,1.49h0c.1-.49.24-1,.4-1.49l.95-3h1.57Zm3.08-1.64c0-1.48,1.33-2.25,3.52-2.23v-.1c0-.39-.16-1-1.2-1a3.2,3.2,0,0,0-1.6.44l-.29-1a4.23,4.23,0,0,1,2.14-.53,2.23,2.23,0,0,1,2.45,2.51v2.13a7.43,7.43,0,0,0,.1,1.43H54l-.1-.66h0a2.18,2.18,0,0,1-1.75.79A1.76,1.76,0,0,1,50.28,16.65Zm10,20a4.68,4.68,0,0,1-3.55,1.51,3.55,3.55,0,0,1-3.29-1.63v6H50.91V30.16c0-1.23,0-2.49-.1-3.78h2.25l.14,1.82h0a4.55,4.55,0,0,1,7.28-.45A6.33,6.33,0,0,1,61.89,32,6.53,6.53,0,0,1,60.3,36.63ZM63,18.29h-1.5V9.64H63Zm10,18.34a4.66,4.66,0,0,1-3.55,1.51,3.54,3.54,0,0,1-3.28-1.63v6H63.55V30.16q0-1.85-.09-3.78H65.7l.15,1.82h0a4.55,4.55,0,0,1,7.28-.45A6.34,6.34,0,0,1,74.54,32,6.54,6.54,0,0,1,72.94,36.63Zm1.75-18.21a2,2,0,0,1-1.87-1h0l-.08.89H71.44c0-.41,0-1.06,0-1.67v-7H73v3.53h0a2.16,2.16,0,0,1,1.9-.95c1.45,0,2.49,1.21,2.47,3C77.38,17.36,76,18.42,74.69,18.42Zm12.88,18.3a6.33,6.33,0,0,1-4.35,1.4,7.64,7.64,0,0,1-4.14-1L79.67,35a7.14,7.14,0,0,0,3.69,1,3.54,3.54,0,0,0,2.26-.65,2.13,2.13,0,0,0,.8-1.75A2.24,2.24,0,0,0,85.76,32a6.35,6.35,0,0,0-2.2-1.23q-4.19-1.56-4.19-4.56a4,4,0,0,1,1.47-3.23,5.91,5.91,0,0,1,3.92-1.25,7.74,7.74,0,0,1,3.63.76l-.65,2.08a6.3,6.3,0,0,0-3.06-.74,3.2,3.2,0,0,0-2.12.66,2,2,0,0,0-.64,1.45,2,2,0,0,0,.74,1.57A8.13,8.13,0,0,0,85,28.7a7.77,7.77,0,0,1,3,1.94,4,4,0,0,1,1,2.77A4.27,4.27,0,0,1,87.57,36.72Zm9-8.43H93.76v5.59c0,1.42.5,2.13,1.49,2.13a5.11,5.11,0,0,0,1.14-.11l.07,1.93a5.73,5.73,0,0,1-2,.29,3,3,0,0,1-2.36-.92,4.48,4.48,0,0,1-.86-3.11v-5.8H89.57V26.38h1.68V24.27l2.51-.76v2.87h2.82Zm-1.44-9.87a2.86,2.86,0,0,1-3-3.06,2.93,2.93,0,0,1,3.06-3.14,2.85,2.85,0,0,1,3,3A2.93,2.93,0,0,1,95.14,18.42Zm11.93,18a5.44,5.44,0,0,1-4.21,1.74,5.16,5.16,0,0,1-4-1.68,6.12,6.12,0,0,1-1.5-4.24,6.29,6.29,0,0,1,1.55-4.38,5.37,5.37,0,0,1,4.18-1.7,5.28,5.28,0,0,1,4.08,1.68A6.12,6.12,0,0,1,108.58,32,6.34,6.34,0,0,1,107.07,36.4Zm2.64-24h.84V11.25l1.48-.41v1.52h1.42v1.12H112v2.61c0,.74.19,1.1.76,1.1a1.94,1.94,0,0,0,.59-.06l0,1.13a3.15,3.15,0,0,1-1.08.16,1.69,1.69,0,0,1-1.29-.49,2.32,2.32,0,0,1-.48-1.66V13.48h-.84Zm6.57,16.26a5.32,5.32,0,0,0-.81-.06,2.42,2.42,0,0,0-2.08,1,3.82,3.82,0,0,0-.64,2.28v6h-2.56V30c0-1.31,0-2.52-.07-3.61h2.23l.09,2.2h.07a3.83,3.83,0,0,1,1.28-1.82,3.05,3.05,0,0,1,1.85-.62,4.06,4.06,0,0,1,.64.05Zm.38-13.89v3.56h-1.49V9.64h1.49v3.52h0a2,2,0,0,1,.74-.67,2.12,2.12,0,0,1,1-.27c1,0,2.07.67,2.07,2.57v3.5H119V15c0-.85-.32-1.51-1.15-1.51a1.24,1.24,0,0,0-1.16.84A1.33,1.33,0,0,0,116.66,14.73Zm10.56,18h-7.68a3.38,3.38,0,0,0,1.12,2.6,3.77,3.77,0,0,0,2.51.81,8.51,8.51,0,0,0,3.1-.55l.4,1.77a9.47,9.47,0,0,1-3.86.71,5.58,5.58,0,0,1-4.2-1.57,5.8,5.8,0,0,1-1.53-4.22A6.66,6.66,0,0,1,118.5,28a4.92,4.92,0,0,1,4-1.84A4.27,4.27,0,0,1,126.29,28a6.21,6.21,0,0,1,1,3.63A6.43,6.43,0,0,1,127.22,32.75Z"/><path class="cls-1" d="M85.14,13.25a1.46,1.46,0,0,0-1.37,1.45h2.6A1.28,1.28,0,0,0,85.14,13.25Z"/><path class="cls-1" d="M103,28a2.56,2.56,0,0,0-2.34,1.37,5.12,5.12,0,0,0-.69,2.76,5,5,0,0,0,.69,2.72,2.62,2.62,0,0,0,4.61,0,5.14,5.14,0,0,0,.71-2.73,5.23,5.23,0,0,0-.68-2.72A2.56,2.56,0,0,0,103,28Z"/></g></g></svg>